<svg width="1440" height="980" viewBox="0 0 1440 980" fill="none" xmlns="http://www.w3.org/2000/svg">
<rect width="1440" height="980" fill="#FFFCF3"/>
<path d="M918 181.498C917.972 186.87 914.425 191.425 908.656 193.534C904.745 194.963 900.622 195.19 896.553 195.684C891.476 196.296 889.72 198.652 890.578 203.694C891.243 207.596 892.993 211.162 893.919 214.982C895.799 222.744 892.409 231.009 885.549 235.172C880.328 238.339 875.498 237.364 871.759 232.458C868.822 228.604 867.821 224.043 866.867 219.454C866.469 217.551 866.023 215.669 864.98 214.006C863.629 211.828 861.948 211.677 860.356 213.69C858.929 215.497 857.77 217.523 856.288 219.282C852.789 223.438 848.391 225.753 842.827 224.977C838.484 224.373 835.514 221.906 834.354 217.592C833.222 213.388 834.862 208.84 838.43 206.339C840.261 205.055 842.299 204.072 844.193 202.884C853.105 197.271 855.259 191.981 853.619 182.35C852.672 176.758 850.985 171.31 850.292 165.663C849.894 162.393 850.058 159.192 851.108 156.059C853.063 150.226 859.622 146.221 865.502 147.128C869.172 147.698 871.381 149.876 872.699 153.174C874.064 156.602 874.688 160.25 875.752 163.767C876.349 165.739 876.932 167.717 878.023 169.483C879.306 171.557 881.158 172.361 883.587 172.018C887.682 171.44 891.518 169.888 895.517 168.954C899.908 167.93 904.251 167.875 908.621 169.118C914.597 170.822 918.027 175.288 918 181.498ZM912.511 181.189C912.498 177.445 911.002 175.301 907.599 174.092C904.347 172.938 900.972 172.835 897.644 173.556C893.761 174.401 889.96 175.631 886.077 176.504C880.06 177.857 875.827 175.872 873.206 170.602C872.369 168.926 871.821 167.14 871.265 165.347C870.112 161.596 869.598 157.673 868.109 154.019C867.231 151.868 865.646 150.831 863.354 150.742C859.067 150.584 855.197 153.476 854.099 157.708C853.05 161.775 853.928 165.759 854.689 169.737C855.808 175.597 857.516 181.319 857.475 187.413C857.413 196.612 853.612 203.323 845.359 207.445C843.856 208.201 842.347 208.95 841.009 209.987C838.875 211.643 838.045 214.844 839.122 217.242C840.152 219.529 842.745 220.697 845.544 220.251C848.892 219.715 851.362 217.874 853.365 215.256C854.881 213.285 856.082 211.059 857.941 209.362C860.864 206.697 864.843 206.772 867.69 209.52C869.076 210.853 869.941 212.474 870.558 214.267C871.622 217.345 871.944 220.587 872.802 223.713C873.632 226.736 875.011 229.388 877.618 231.284C878.798 232.142 880.026 232.349 881.295 231.682C885.947 229.216 888.924 225.554 889.302 220.12C889.562 216.328 888.032 212.914 886.852 209.444C885.837 206.449 885.213 203.433 885.487 200.266C885.844 196.11 887.909 193.142 891.765 191.494C894.317 190.401 897.061 190.168 899.771 189.81C902.858 189.405 905.966 189.069 908.704 187.372C911.077 185.895 912.745 184.005 912.511 181.189Z" fill="#669CD3"/>
<path d="M325.826 341.167C325.735 337.136 327.371 333.76 330.684 331.233C332.528 329.827 334.538 328.642 336.448 327.317C339.13 325.453 341.48 323.311 342.643 320.147C343.723 317.196 343.324 316.403 340.293 315.356C333.516 313.018 328.749 308.554 326.109 301.981C325.303 299.978 324.821 297.861 325.062 295.67C325.876 288.385 331.864 284.534 339.296 286.488C341.505 287.069 343.465 288.164 345.467 289.211C349.918 291.549 354.294 294.01 359.036 295.768C363.67 297.493 367.607 296.969 371.153 293.258C374.923 289.317 379.341 286.259 384.938 285.262C390.029 284.355 394.098 285.81 396.399 289.546C398.931 293.658 398.317 297.632 395.56 301.392C394.414 302.954 393.151 304.434 391.889 305.914C389.747 308.44 388.052 311.219 386.774 314.261C385.054 318.34 384.847 322.387 386.524 326.581C389.223 333.359 389.788 340.259 387.048 347.2C386.524 348.516 385.877 349.775 384.996 350.896C382.97 353.479 380.122 354.354 376.949 353.356C373.677 352.326 371.219 350.127 368.91 347.764C367.183 345.998 365.58 344.126 363.911 342.319C362.831 341.158 361.561 340.226 360.141 339.515C357.55 338.223 355.548 338.624 353.771 340.897C352.534 342.483 351.487 344.208 350.275 345.819C347.26 349.825 343.482 352.711 338.374 353.692C332.503 354.82 328.932 352.882 326.881 347.388C326.133 345.418 325.785 343.382 325.826 341.167ZM331.731 341.052C331.698 342.491 331.855 343.734 332.254 344.952C333.25 347.985 334.255 348.533 337.469 347.887C341.19 347.135 343.723 344.788 345.882 341.919C347.227 340.128 348.44 338.223 349.926 336.564C353.032 333.114 357.018 332.247 361.428 333.849C364.409 334.937 366.759 336.858 368.885 339.123C370.829 341.191 372.697 343.358 374.79 345.263C379.05 349.13 380.653 348.623 382.123 343.161C383.452 338.215 382.679 333.416 380.852 328.772C378.635 323.131 378.951 317.613 381.201 312.078C382.953 307.761 385.42 303.886 388.434 300.33C389.448 299.136 390.502 297.959 391.125 296.495C392.404 293.511 390.685 290.805 387.421 290.781C384.274 290.756 381.525 291.982 379.108 293.855C377.041 295.457 375.114 297.247 373.171 298.997C369.591 302.226 365.356 302.962 360.739 302.153C358.281 301.719 355.955 300.861 353.696 299.806C349.403 297.803 345.234 295.58 341.14 293.209C339.77 292.416 338.358 291.713 336.788 291.385C333.284 290.642 330.884 292.236 330.194 295.702C329.887 297.231 330.327 298.645 330.801 300.052C332.918 306.355 337.992 309.241 343.955 311.146C348.273 312.528 349.926 315.544 348.788 319.902C347.825 323.597 345.84 326.671 342.975 329.255C340.5 331.479 337.569 333.04 334.911 334.978C332.794 336.539 331.448 338.469 331.731 341.052Z" fill="#E57128"/>
<g clip-path="url(#clip0_547:188)">
<path d="M1273.97 218.466C1274.33 219.272 1274.7 220.087 1275.06 220.893C1275.11 221.354 1275.16 221.807 1275.2 222.268C1274.96 222.497 1275.11 222.755 1275.16 223.011C1274.93 223.266 1274.7 223.52 1274.48 223.772C1272.76 224.125 1272.55 222.466 1271.69 221.673C1271.23 220.57 1270.28 219.882 1269.44 219.142C1264.78 215.069 1259.72 211.568 1254.38 208.451C1250.49 206.186 1246.57 204.029 1242.46 202.241C1242.06 201.944 1241.64 201.695 1241.12 201.762C1240.21 201.305 1239.46 200.53 1238.38 200.41C1235.99 199.208 1233.41 198.508 1230.94 197.524C1226.97 195.876 1222.82 194.867 1218.64 194.012C1211.45 192.542 1204.26 190.924 1196.93 193.116C1195.82 193.611 1194.71 194.107 1193.61 194.6C1192.93 195.055 1192.22 195.467 1191.58 195.971C1185.85 200.525 1183.88 209.776 1187.14 216.742C1187.43 217.827 1187.88 218.836 1188.49 219.781C1188.69 220.181 1188.88 220.578 1189.08 220.977C1189.24 221.419 1189.32 221.914 1189.78 222.173C1190.01 222.539 1190.24 222.904 1190.47 223.27C1190.54 223.529 1190.61 223.779 1190.91 223.85C1193.55 227.928 1197 231.282 1200.67 234.375C1210.16 242.391 1220.75 248.638 1232.04 253.73C1232.09 253.77 1232.14 253.794 1232.2 253.794C1235 254.96 1237.72 256.297 1240.66 257.098L1240.65 257.092C1244.14 258.555 1247.73 259.661 1251.51 260.055L1251.67 260.1C1254.07 260.571 1256.49 261.012 1258.95 260.521C1259.64 260.566 1260.33 260.568 1260.99 260.333C1261.47 260.289 1262.01 260.661 1262.38 260.063C1262.68 259.959 1262.99 259.848 1263.3 259.745C1263.91 260.106 1264.37 259.67 1264.76 259.361C1267.71 257.054 1268.22 255.11 1266.95 251.13C1266.66 250.029 1266.24 248.986 1265.51 248.087C1265.31 247.66 1265.27 247.106 1264.64 247.031C1264.42 246.655 1264.2 246.271 1263.98 245.895C1263.45 244.969 1263.03 243.953 1262.37 243.139C1258.91 238.892 1254.94 235.159 1250.65 231.77C1247.03 228.909 1243.01 226.693 1238.88 224.726C1236.58 223.632 1234.4 222.178 1231.81 221.726L1231.71 221.686C1230.13 220.598 1228.22 220.445 1226.46 219.933C1224.17 219.277 1221.83 218.604 1219.38 218.981C1219.12 218.843 1218.9 218.959 1218.69 219.089C1217.53 218.989 1216.47 219.331 1215.83 220.25C1215.33 220.975 1215.97 221.663 1216.49 222.233C1216.68 222.906 1217.29 223.141 1217.8 223.476C1217.82 223.851 1218.08 224.048 1218.33 224.27C1222.58 228.018 1227 231.536 1231.75 234.632C1234.47 236.4 1237.04 238.411 1239.93 239.906C1240.11 240.447 1240.58 240.632 1241.05 240.826C1241.25 241.286 1241.62 241.469 1242.09 241.477C1242.5 242.184 1242.54 242.768 1241.59 243.019C1241.1 242.97 1240.6 242.917 1240.12 242.867L1239.97 242.825C1235.15 241.149 1230.94 238.354 1226.68 235.64C1223.61 233.686 1220.85 231.315 1217.87 229.234C1217.74 229.012 1217.65 228.743 1217.32 228.753C1215.97 227.415 1214.62 226.084 1213.27 224.746C1212.74 223.539 1212.22 222.33 1211.68 221.123C1211.56 219.159 1212.63 217.754 1213.87 216.443C1214.89 216.044 1215.9 215.64 1216.92 215.238C1218.31 215.105 1219.71 214.975 1221.1 214.842C1221.58 215.064 1222.07 215.078 1222.57 214.929C1222.95 215.408 1223.51 215.154 1223.97 215.23C1229.85 216.217 1235.37 218.199 1240.71 220.858C1245.49 223.234 1250.18 225.721 1254.32 229.116C1259.61 233.455 1264.48 238.218 1268.3 243.962C1268.39 244.16 1268.49 244.364 1268.59 244.562C1268.9 245.03 1269.21 245.5 1269.53 245.968C1270.16 247.384 1270.79 248.806 1271.43 250.223C1271.61 252.004 1272.26 253.714 1272.2 255.554C1272.11 258.175 1270.62 260.084 1269.18 262.043C1269.06 262.141 1268.94 262.237 1268.82 262.335C1268.12 262.497 1267.74 263.14 1267.16 263.485C1266.05 263.975 1264.94 264.471 1263.82 264.961C1257.57 266.385 1251.41 265.909 1245.25 264.267C1243.27 263.74 1241.38 262.785 1239.27 262.735C1238.86 262.544 1238.45 262.351 1238.04 262.154C1236.57 261.593 1235.1 261.023 1233.63 260.462C1233.32 260.374 1233.01 260.285 1232.7 260.197C1230.42 258.76 1227.79 258.045 1225.45 256.755C1221.43 254.534 1217.3 252.501 1213.38 250.088C1207.64 246.556 1202.23 242.599 1197.09 238.229C1195.23 236.642 1193.72 234.658 1191.66 233.297C1191.55 233.114 1191.44 232.923 1191.32 232.74C1189.51 230.508 1187.7 228.273 1185.88 226.034C1185.76 225.854 1185.64 225.666 1185.52 225.485C1185.37 224.793 1185.29 224.057 1184.5 223.737C1184.24 223.25 1183.98 222.763 1183.72 222.276C1183.49 221.29 1183.15 220.351 1182.6 219.496C1182.3 218.9 1182 218.302 1181.71 217.707C1181.94 217.075 1181.79 216.525 1181.32 216.061C1181.27 215.955 1181.23 215.852 1181.18 215.746C1181.27 215.272 1181.52 214.773 1180.97 214.396C1180.92 214.188 1180.86 213.981 1180.79 213.781C1180.61 210.257 1180.53 206.738 1181.32 203.27C1181.32 203.27 1181.36 203.111 1181.36 203.113C1182.9 198.467 1185.43 194.496 1189.29 191.436C1189.78 191.204 1190.28 190.97 1190.77 190.739C1191.31 190.668 1191.6 190.293 1191.82 189.842C1192.83 189.391 1193.84 188.94 1194.84 188.491C1195.33 188.623 1195.8 188.674 1196.21 188.308C1196.72 188.096 1197.22 187.887 1197.72 187.681C1198.55 187.746 1199.35 187.638 1200.09 187.234C1200.92 187.387 1201.72 187.375 1202.5 187.014C1203.1 187.214 1203.7 187.307 1204.29 186.965C1205.52 187.171 1206.75 187.252 1207.99 187.131C1208.24 187.244 1208.48 187.443 1208.73 187.452C1213.42 187.68 1217.98 188.7 1222.52 189.798C1225.6 190.542 1228.65 191.465 1231.71 192.307C1231.9 192.554 1232.16 192.639 1232.47 192.582C1233.97 193.15 1235.46 193.721 1236.96 194.29C1237.44 194.544 1237.82 194.982 1238.4 195.022C1239.57 195.491 1240.75 195.962 1241.92 196.431C1242.03 196.486 1242.15 196.534 1242.27 196.589C1243.75 197.537 1245.29 198.377 1246.99 198.875L1246.96 198.866C1247.05 199.009 1247.1 199.222 1247.21 199.276C1250.92 200.899 1254.42 202.93 1257.8 205.133C1263.68 208.939 1269.62 212.745 1273.97 218.466Z" fill="#4B9A67"/>
</g>
<g clip-path="url(#clip1_547:188)">
<path d="M955.132 332.524C958.509 328.738 962.817 326.871 967.383 325.353C976.773 322.23 986.435 321.167 996.23 321.785C1011.57 322.746 1025.99 326.85 1038.78 335.651C1043.61 338.977 1047.73 343.048 1050.1 348.608C1052.65 354.574 1051.65 360.073 1048.08 365.243C1042.96 372.656 1035.42 375.973 1026.88 377.364C1016.7 379.025 1006.67 378.204 996.714 375.374C989.525 373.328 982.744 370.303 976.956 365.807C971.106 361.265 966.234 355.54 967.121 347.172C967.422 344.346 968.533 341.861 970.436 339.639C974.807 334.558 980.685 333.401 986.863 333.159C996.094 332.803 1004.82 335.008 1013.16 338.886C1017.98 341.12 1022.19 344.119 1025.76 348.027C1026.94 349.319 1027.84 350.793 1028.55 352.364C1030.58 356.854 1028.33 360.766 1024.07 362.242C1018.79 364.084 1013.3 364.161 1007.77 363.9C1001.2 363.592 995.159 361.526 989.448 358.413C987.279 357.227 985.429 355.563 984.443 353.232C982.887 349.545 984.457 347.064 987.958 345.905C991.832 344.624 995.933 345.02 999.939 345.327C1002.23 345.506 1004.52 345.916 1006.72 346.693C1008.09 347.176 1009 348.201 1009.77 349.285C1010.56 350.394 1010.1 351.438 1008.98 352.087C1008.43 352.399 1007.4 352.421 1007.35 351.859C1007.17 350.042 1005.74 349.978 1004.59 349.712C999.614 348.583 994.581 348.39 989.566 349.4C987.532 349.807 987.325 350.687 988.614 352.377C990.016 354.215 992.055 355.167 994.061 356.074C1003.01 360.111 1012.3 360.776 1021.77 358.462C1025.57 357.531 1026.12 354.846 1023.68 351.768C1018.46 345.176 1011.33 341.777 1003.56 339.365C996.792 337.265 989.889 336.385 982.861 337.498C978.947 338.116 975.249 339.493 972.97 343.023C970.547 346.776 971.17 352.058 974.034 356.092C976.987 360.248 981.01 362.905 985.396 365.356C992.549 369.34 1000.22 371.639 1008.19 372.692C1016.66 373.813 1025.23 373.873 1033.41 370.705C1040.24 368.06 1045.63 363.862 1047.08 356.119C1047.72 352.681 1046.43 349.701 1044.73 346.784C1040.95 340.338 1034.66 337.111 1028.36 333.923C1021.03 330.216 1013.2 327.929 1005.14 326.739C991.614 324.742 978.223 325.214 965.347 330.448C961.29 332.093 957.726 334.44 955.344 338.286C952.442 342.981 952.57 347.914 954.487 352.808C956.28 357.395 959.162 361.26 962.906 364.573C971.035 371.768 979.971 377.791 989.286 383.29C996.095 387.301 1003.12 390.871 1010.69 393.259C1014.77 394.549 1018.93 395.347 1023.17 395.785C1023.73 395.84 1024.5 395.789 1024.42 396.527C1024.34 397.134 1023.59 396.809 1023.13 396.852C1016.75 397.496 1010.59 396.477 1004.49 394.589C995.828 391.912 987.997 387.575 980.288 382.931C974.899 379.68 969.695 376.138 964.591 372.473C961.877 370.521 959.14 368.467 956.915 366.008C952.093 360.661 948.703 354.509 948.469 347.083C948.295 341.105 950.483 336.148 955.132 332.524Z" fill="#F3CC4B"/>
</g>
<path d="M426.364 182.02C426.763 181.801 427.153 181.585 427.548 181.358C429.257 180.026 430.449 178.48 429.825 176.13C429.787 174.196 428.644 172.693 427.854 171.052C426.836 169.692 426.598 167.729 424.763 166.987C424.617 166.736 424.461 166.481 424.315 166.23C420.277 161.213 415.395 157.141 410.106 153.516C406.203 150.839 402.074 148.53 397.844 146.482C393.332 144.305 388.627 142.383 383.432 142.77C380.142 143.014 378.691 144.728 378.746 147.975C379.095 148.999 379.305 150.093 380.188 150.839C380.534 151.362 380.665 152.05 381.365 152.274C381.539 152.611 381.681 152.998 382.194 152.855C384.984 156.746 389.321 158.38 393.447 160.869C393.114 159.451 392.78 158.483 391.757 157.952C391.305 156.406 390.653 154.957 389.58 153.738C390.118 152.873 391.04 153.584 391.631 153.127C391.904 153.709 392.245 154.18 393.007 153.99C393.574 154.856 394.4 155.429 395.293 155.91C395.748 156.6 396.176 157.312 396.964 157.695C397.961 159.029 398.954 160.373 399.951 161.707C400.32 162.201 400.679 162.692 401.048 163.186C401.167 163.457 401.281 163.74 401.4 164.011C401.367 165.23 401.622 166.529 400.395 167.381C399.983 167.57 399.579 167.756 399.168 167.945C395.322 168.459 392.117 166.556 388.919 164.999C383.96 162.577 379.924 158.817 375.975 155.01C375.688 154.498 375.401 153.986 375.114 153.473C375.097 152.573 374.733 151.906 373.869 151.574C373.81 151.438 373.747 151.295 373.688 151.159C373.756 150.68 374.218 150.154 373.527 149.765C373.39 149.349 373.257 148.921 373.119 148.505C372.96 145.062 374.51 142.299 376.601 139.748C378.251 138.774 380.007 138.024 381.839 137.446C382.378 137.938 382.768 137.228 383.259 137.283C384.395 137.352 385.529 137.583 386.671 137.317C393.3 138.81 399.618 141.194 405.58 144.408C412.844 148.336 419.267 153.424 425.253 159.134C428.413 162.145 430.919 165.613 433.473 169.087C434.126 170.599 434.786 172.107 435.438 173.619C436.496 179.033 435.011 183.421 430.25 186.484C428.348 187.64 426.306 188.498 424.176 189.134C418.1 190.588 411.973 190.592 405.812 189.757C396.879 188.545 388.317 185.939 380.102 182.364C374.96 180.121 370.074 177.272 365.495 173.975C360.14 170.118 355.028 165.993 350.94 160.737C348.536 157.647 346.036 154.625 343.579 151.576C343.418 151.332 343.261 151.077 343.101 150.833C342.764 150.145 343.027 149.104 341.926 148.867C340.571 145.875 339.22 142.89 337.865 139.897C338.219 139.042 338.069 138.289 337.352 137.678C337.297 137.531 337.242 137.384 337.182 137.249C337.207 136.771 337.764 136.257 337.074 135.831C336.996 135.551 336.918 135.27 336.841 134.99C337.1 134.023 337.064 133.077 336.617 132.159C336.651 131.497 336.689 130.824 336.723 130.162C336.847 129.748 336.979 129.331 337.085 128.916C338.303 124.268 340.626 120.438 345.048 118.162C347.378 117.142 349.712 116.129 352.042 115.109C352.73 115.141 353.089 114.544 353.639 114.303C353.786 114.248 353.932 114.192 354.071 114.141C355.083 114.83 355.891 113.883 356.779 113.737C365.392 112.268 373.862 113.306 382.229 115.26C393.609 117.917 404.75 121.3 415.477 126.058C421.788 128.858 427.95 131.912 433.792 135.529C442.75 141.07 450.783 147.781 457.202 156.249C457.451 156.796 457.688 157.339 457.937 157.886C457.749 159.182 458.506 160.665 457.158 161.732C454.493 164.04 454.231 161.306 453.329 159.903C453.305 159.006 452.838 158.411 452.069 158.01C452.015 157.639 451.883 157.337 451.45 157.293C451.293 157.038 451.187 156.734 450.976 156.539C445.185 151.13 439.516 145.649 432.602 141.514C425.734 137.402 418.552 133.968 411.327 130.642C405.557 127.991 399.404 126.353 393.312 124.527C387.528 122.789 381.734 121.129 375.79 120.154C368.545 118.958 361.261 118.29 354.101 120.84C351.96 121.265 350.016 122.161 348.2 123.351C344.307 125.585 342.86 128.95 343.264 133.365C343.488 135.765 344.458 137.919 344.978 140.217C345.397 141.175 345.816 142.132 346.239 143.098C348.779 147.773 351.761 152.102 355.205 156.193C358.701 160.342 362.594 163.94 366.995 167.055C367.054 167.128 367.122 167.161 367.218 167.173C372.966 171.747 379.296 175.267 386.218 177.737C386.276 177.972 386.405 178.06 386.633 177.924C387.244 178.807 388.157 178.901 389.113 178.869L389.081 178.856C389.255 178.987 389.412 179.161 389.603 179.23C400.249 183.125 411.094 185.504 422.505 183.53C423.109 183.328 423.705 183.13 424.305 182.921C425.095 182.836 425.774 182.539 426.364 182.02Z" fill="#F7F7F7"/>
<path d="M433.364 168.02C433.763 167.801 434.153 167.585 434.548 167.358C436.257 166.026 437.449 164.48 436.825 162.13C436.787 160.196 435.644 158.693 434.854 157.052C433.836 155.692 433.598 153.729 431.763 152.987C431.617 152.736 431.461 152.481 431.315 152.23C427.277 147.213 422.395 143.141 417.106 139.516C413.203 136.839 409.074 134.53 404.844 132.482C400.332 130.305 395.627 128.383 390.432 128.77C387.142 129.014 385.691 130.728 385.746 133.975C386.095 134.999 386.305 136.093 387.188 136.839C387.534 137.362 387.665 138.05 388.365 138.274C388.539 138.611 388.681 138.998 389.194 138.855C391.984 142.746 396.321 144.38 400.447 146.869C400.114 145.451 399.78 144.483 398.757 143.952C398.305 142.406 397.653 140.957 396.58 139.738C397.118 138.873 398.04 139.584 398.631 139.127C398.904 139.709 399.245 140.18 400.007 139.99C400.574 140.856 401.4 141.429 402.293 141.91C402.748 142.6 403.176 143.312 403.964 143.695C404.961 145.029 405.954 146.373 406.951 147.707C407.32 148.201 407.679 148.692 408.048 149.186C408.167 149.457 408.281 149.74 408.4 150.011C408.367 151.23 408.622 152.529 407.395 153.381C406.983 153.57 406.579 153.756 406.168 153.945C402.322 154.459 399.117 152.556 395.919 150.999C390.96 148.577 386.924 144.817 382.975 141.01C382.688 140.498 382.401 139.986 382.114 139.473C382.097 138.573 381.733 137.906 380.869 137.574C380.81 137.438 380.747 137.295 380.688 137.159C380.756 136.68 381.218 136.154 380.527 135.765C380.39 135.349 380.257 134.921 380.119 134.505C379.96 131.062 381.51 128.299 383.601 125.748C385.251 124.774 387.007 124.024 388.839 123.446C389.378 123.938 389.768 123.228 390.259 123.283C391.395 123.352 392.529 123.583 393.671 123.317C400.3 124.81 406.618 127.194 412.58 130.408C419.844 134.336 426.267 139.424 432.253 145.134C435.413 148.145 437.919 151.613 440.473 155.087C441.126 156.599 441.786 158.107 442.438 159.619C443.496 165.033 442.011 169.421 437.25 172.484C435.348 173.64 433.306 174.498 431.176 175.134C425.1 176.588 418.973 176.592 412.812 175.757C403.879 174.545 395.317 171.939 387.102 168.364C381.96 166.121 377.074 163.272 372.495 159.975C367.14 156.118 362.028 151.993 357.94 146.737C355.536 143.647 353.036 140.625 350.579 137.576C350.418 137.332 350.261 137.077 350.101 136.833C349.764 136.145 350.027 135.104 348.926 134.867C347.571 131.875 346.22 128.89 344.865 125.897C345.219 125.042 345.069 124.289 344.352 123.678C344.297 123.531 344.242 123.384 344.182 123.249C344.207 122.771 344.764 122.257 344.074 121.831C343.996 121.551 343.918 121.27 343.841 120.99C344.1 120.023 344.064 119.077 343.617 118.159C343.651 117.497 343.689 116.824 343.723 116.162C343.847 115.748 343.979 115.331 344.085 114.916C345.303 110.268 347.626 106.438 352.048 104.162C354.378 103.142 356.712 102.129 359.042 101.109C359.73 101.141 360.089 100.544 360.639 100.303C360.786 100.248 360.932 100.192 361.071 100.141C362.083 100.83 362.891 99.8834 363.779 99.7371C372.392 98.2681 380.862 99.3059 389.229 101.26C400.609 103.917 411.75 107.3 422.477 112.058C428.788 114.858 434.95 117.912 440.792 121.529C449.75 127.07 457.783 133.781 464.202 142.249C464.451 142.796 464.688 143.339 464.937 143.886C464.749 145.182 465.506 146.665 464.158 147.732C461.493 150.04 461.231 147.306 460.329 145.903C460.305 145.006 459.838 144.411 459.069 144.01C459.015 143.639 458.883 143.337 458.45 143.293C458.293 143.038 458.187 142.734 457.976 142.539C452.185 137.13 446.516 131.649 439.602 127.514C432.734 123.402 425.552 119.968 418.327 116.642C412.557 113.991 406.404 112.353 400.312 110.527C394.528 108.789 388.734 107.129 382.79 106.154C375.545 104.958 368.261 104.29 361.101 106.84C358.96 107.265 357.016 108.161 355.2 109.351C351.307 111.585 349.86 114.95 350.264 119.365C350.488 121.765 351.458 123.919 351.978 126.217C352.397 127.175 352.816 128.132 353.239 129.098C355.779 133.773 358.761 138.102 362.205 142.193C365.701 146.342 369.594 149.94 373.995 153.055C374.054 153.128 374.122 153.161 374.218 153.173C379.966 157.747 386.296 161.267 393.218 163.737C393.276 163.972 393.405 164.06 393.633 163.924C394.244 164.807 395.157 164.901 396.113 164.869L396.081 164.856C396.255 164.987 396.412 165.161 396.603 165.23C407.249 169.125 418.094 171.504 429.505 169.53C430.109 169.328 430.705 169.13 431.305 168.921C432.095 168.836 432.774 168.539 433.364 168.02Z" fill="#D84E2C"/>
<path d="M1238.52 565.521C1238.84 562.98 1240.83 563.038 1242.47 563.005C1247.09 562.93 1251.63 563.719 1256.1 564.782C1262.73 566.352 1269.12 568.569 1275.09 571.899C1280.99 575.196 1283.52 580.487 1283.93 586.931C1284.39 594.364 1282.61 601.373 1279.46 608.067C1271.92 624.029 1261.96 638.28 1248.74 650.115C1241.47 656.634 1233.7 662.564 1225.11 667.347C1220.02 670.171 1214.84 672.737 1209.22 674.307C1201.94 676.333 1194.75 677.089 1187.64 673.426C1182.58 670.827 1180.17 666.533 1178.8 661.368C1177 654.616 1178.41 648.321 1181.34 642.175C1184.86 634.751 1189.98 628.48 1195.56 622.551C1205.2 612.344 1215.94 603.425 1227.65 595.684C1232.84 592.246 1238.31 589.124 1244.72 588.476C1253.28 587.612 1258.89 592.479 1258.18 601.564C1257.45 610.899 1252.45 618.041 1246.53 624.668C1239.78 632.209 1231.93 638.488 1222.94 643.271C1219.66 645.015 1216.13 646.186 1212.47 646.759C1209.39 647.249 1206.14 644.982 1206.52 640.564C1206.86 636.569 1209.18 633.513 1211.37 630.399C1216.13 623.639 1222.12 618.016 1228.01 612.261C1230.65 609.678 1233.11 606.996 1236.79 605.891C1239.76 605.003 1242.64 606.29 1243.59 609.13C1244.09 610.633 1242.46 611.04 1241.71 610.841C1237.38 609.728 1235.3 612.892 1232.9 615.267C1226.8 621.322 1221.08 627.733 1215.8 634.518C1214.82 635.772 1213.99 637.109 1213.33 638.546C1213.11 639.011 1212.74 639.459 1213.23 639.983C1213.71 640.498 1214.18 640.165 1214.68 640.024C1219.44 638.654 1223.56 636.104 1227.58 633.314C1235.59 627.758 1242.35 620.998 1247.67 612.842C1250.01 609.271 1251.13 605.252 1251.65 601.108C1252.24 596.39 1249.49 594.273 1245.01 594.871C1237.3 595.9 1231.46 600.377 1225.46 604.579C1216.13 611.132 1207.59 618.614 1199.8 626.919C1194.55 632.525 1189.47 638.288 1186.22 645.364C1183.87 650.48 1183.34 655.754 1185.07 661.143C1186.65 666.076 1190.43 668.867 1195.61 669.34C1201.82 669.905 1207.63 668.493 1213.21 665.993C1223.14 661.55 1231.86 655.338 1240.21 648.437C1251.68 638.953 1260.68 627.55 1268.15 614.835C1272.18 607.984 1275.54 600.809 1276.8 592.927C1278.21 584.108 1275.93 578.294 1267.1 574.54C1261.66 572.232 1256.13 570.164 1250.62 568.063C1247.49 566.867 1244.16 566.211 1240.92 565.264C1240.13 565.065 1239.51 565.804 1238.52 565.521Z" fill="#F7F7F7"/>
<path d="M451.552 444.455C451.033 445.54 451.05 446.633 451.544 447.727C451.684 448.695 451.684 449.713 452.515 450.431C452.614 451.132 452.186 451.516 451.667 451.849C450.63 451.916 449.74 451.599 449.024 450.815C449.024 450.815 449.049 450.815 449.049 450.823C448.991 449.83 448.793 448.895 448.118 448.127C447.69 445.532 448.563 443.003 448.571 440.432C449.287 439.656 449.518 438.721 449.37 437.686C449.889 436.952 450.078 436.134 449.979 435.241C451.074 434.749 451.173 433.722 451.288 432.704C451.692 432.529 451.667 432.145 451.733 431.802C452.219 431.552 452.425 431.101 452.697 430.642C454.706 427.196 456.715 423.749 459.078 420.535C459.581 419.843 460.486 419.359 460.338 418.282L460.355 418.257C461.672 417.748 462.372 416.655 462.948 415.444L462.932 415.453C464.2 414.418 465.394 413.316 466.152 411.806C466.275 411.672 466.399 411.53 466.522 411.397C469.52 408.342 472.517 405.296 475.514 402.241L475.506 402.25C476.28 401.949 476.856 401.382 477.491 400.856C482.637 396.641 487.874 392.61 493.984 389.806C497.311 388.278 500.901 387.753 504.211 386.317C504.944 386.209 505.677 386.108 506.41 386C506.665 386.351 507.003 386.317 507.357 386.209C510.947 386.275 514.546 386.008 518.111 386.659C518.539 386.743 518.968 386.818 519.404 386.901C519.816 387.294 520.318 387.177 520.812 387.168C521.216 387.335 521.619 387.527 522.031 387.669C530.397 390.432 536.828 395.181 538.829 404.478C539.06 407.057 539.06 409.636 538.813 412.215C538.656 412.715 538.459 413.208 538.343 413.717C534.457 430.217 524.205 441.542 509.992 449.704C506.435 451.749 502.597 453.051 498.793 454.478C498.497 454.52 498.208 454.562 497.912 454.595C497.467 454.579 497.014 454.57 496.57 454.553C495.121 455.263 493.597 454.921 492.098 454.896C490.303 454.12 488.319 453.936 486.598 452.843C483.181 450.656 481.69 447.226 480.471 443.579C480.471 441.167 480.471 438.763 480.463 436.351C481.245 435.875 480.891 434.991 481.163 434.315C485.363 423.632 492.798 417.03 504.195 415.344C505.397 415.344 506.591 415.353 507.793 415.353C511.581 416.212 515.048 417.514 516.365 421.762C516.365 422.672 516.365 423.582 516.357 424.5C514.15 429.633 509.943 432.47 505.092 434.573C504.302 434.69 503.52 434.849 502.729 434.924C501.708 435.024 500.843 434.89 500.646 433.563C500.481 432.428 500.819 431.719 501.922 431.385C502.252 431.285 502.548 431.076 502.853 430.909C505.529 429.557 507.513 427.321 509.811 425.476C511.729 423.932 511.161 421.696 508.773 420.861C508.156 420.644 507.505 420.535 506.871 420.369C505.825 420.394 504.78 420.41 503.726 420.435C502.968 420.26 502.276 420.519 501.543 420.711C497.945 421.679 494.939 423.54 492.247 426.177C488.689 429.649 485.783 433.388 485.181 438.546C484.375 439.973 485.181 441.317 485.387 442.686C486.31 446.808 488.805 449.237 492.947 449.888C493.572 449.922 494.231 450.155 494.791 449.654C497.896 449.513 500.753 448.428 503.503 447.109C514.06 442.051 522.64 434.648 528.66 424.45C530.957 420.561 532.686 416.354 533.279 411.764C533.279 411.605 533.287 411.438 533.287 411.28C533.699 410.746 534.078 410.203 533.765 409.477C533.748 408.567 533.74 407.658 533.724 406.748C533.757 406.306 533.888 405.838 533.798 405.413C532.085 397.167 525.209 392.977 517.642 391.325C517.485 391.333 517.329 391.341 517.172 391.35C516.752 391.108 516.423 390.649 515.847 390.807C512.108 390.498 508.362 390.298 504.623 390.816C504.244 390.774 503.89 390.816 503.709 391.233C502.951 391.375 502.112 390.941 501.428 391.575C496.627 392.418 492.527 394.922 488.484 397.442C484.16 400.13 480.233 403.401 476.519 406.882C473.579 409.644 470.508 412.331 468.202 415.728C467.914 416.045 467.617 416.354 467.329 416.671C466.012 417.664 465.024 418.95 464.167 420.352C464.167 420.352 464.175 420.344 464.184 420.344C460.61 424.024 458.041 428.447 455.439 432.812C453.347 436.368 451.98 440.274 451.552 444.455Z" fill="#F7F7F7"/>
<path d="M1231.52 551.521C1231.84 548.98 1233.83 549.038 1235.47 549.005C1240.09 548.93 1244.63 549.719 1249.1 550.782C1255.73 552.352 1262.12 554.569 1268.09 557.899C1273.99 561.196 1276.52 566.487 1276.93 572.931C1277.39 580.364 1275.61 587.373 1272.46 594.067C1264.92 610.029 1254.96 624.28 1241.74 636.115C1234.47 642.634 1226.7 648.564 1218.11 653.347C1213.02 656.171 1207.84 658.737 1202.22 660.307C1194.94 662.333 1187.75 663.089 1180.64 659.426C1175.58 656.827 1173.17 652.533 1171.8 647.368C1170 640.616 1171.41 634.321 1174.34 628.175C1177.86 620.751 1182.98 614.48 1188.56 608.551C1198.2 598.344 1208.94 589.425 1220.65 581.684C1225.84 578.246 1231.31 575.124 1237.72 574.476C1246.28 573.612 1251.89 578.479 1251.18 587.564C1250.45 596.899 1245.45 604.041 1239.53 610.668C1232.78 618.209 1224.93 624.488 1215.94 629.271C1212.66 631.015 1209.13 632.186 1205.47 632.759C1202.39 633.249 1199.14 630.982 1199.52 626.564C1199.86 622.569 1202.18 619.513 1204.37 616.399C1209.13 609.639 1215.12 604.016 1221.01 598.261C1223.65 595.678 1226.11 592.996 1229.79 591.891C1232.76 591.003 1235.64 592.29 1236.59 595.13C1237.09 596.633 1235.46 597.04 1234.71 596.841C1230.38 595.728 1228.3 598.892 1225.9 601.267C1219.8 607.322 1214.08 613.733 1208.8 620.518C1207.82 621.772 1206.99 623.109 1206.33 624.546C1206.11 625.011 1205.74 625.459 1206.23 625.983C1206.71 626.498 1207.18 626.165 1207.68 626.024C1212.44 624.654 1216.56 622.104 1220.58 619.314C1228.59 613.758 1235.35 606.998 1240.67 598.842C1243.01 595.271 1244.13 591.252 1244.65 587.108C1245.24 582.39 1242.49 580.273 1238.01 580.871C1230.3 581.9 1224.46 586.377 1218.46 590.579C1209.13 597.132 1200.59 604.614 1192.8 612.919C1187.55 618.525 1182.47 624.288 1179.22 631.364C1176.87 636.48 1176.34 641.754 1178.07 647.143C1179.65 652.076 1183.43 654.867 1188.61 655.34C1194.82 655.905 1200.63 654.493 1206.21 651.993C1216.14 647.55 1224.86 641.338 1233.21 634.437C1244.68 624.953 1253.68 613.55 1261.15 600.835C1265.18 593.984 1268.54 586.809 1269.8 578.927C1271.21 570.108 1268.93 564.294 1260.1 560.54C1254.66 558.232 1249.13 556.164 1243.62 554.063C1240.49 552.867 1237.16 552.211 1233.92 551.264C1233.13 551.065 1232.51 551.804 1231.52 551.521Z" fill="#4EA0F7"/>
<path d="M444.552 430.455C444.033 431.54 444.05 432.633 444.544 433.727C444.684 434.695 444.684 435.713 445.515 436.431C445.614 437.132 445.186 437.516 444.667 437.849C443.63 437.916 442.74 437.599 442.024 436.815C442.024 436.815 442.049 436.815 442.049 436.823C441.991 435.83 441.793 434.895 441.118 434.127C440.69 431.532 441.563 429.003 441.571 426.432C442.287 425.656 442.518 424.721 442.37 423.686C442.889 422.952 443.078 422.134 442.979 421.241C444.074 420.749 444.173 419.722 444.288 418.704C444.692 418.529 444.667 418.145 444.733 417.802C445.219 417.552 445.425 417.101 445.697 416.642C447.706 413.196 449.715 409.749 452.078 406.535C452.581 405.843 453.486 405.359 453.338 404.282L453.355 404.257C454.672 403.748 455.372 402.655 455.948 401.444L455.932 401.453C457.2 400.418 458.394 399.316 459.152 397.806C459.275 397.672 459.399 397.53 459.522 397.397C462.52 394.342 465.517 391.296 468.514 388.241L468.506 388.25C469.28 387.949 469.856 387.382 470.491 386.856C475.637 382.641 480.874 378.61 486.984 375.806C490.311 374.278 493.901 373.753 497.211 372.317C497.944 372.209 498.677 372.108 499.41 372C499.665 372.351 500.003 372.317 500.357 372.209C503.947 372.275 507.546 372.008 511.111 372.659C511.539 372.743 511.968 372.818 512.404 372.901C512.816 373.294 513.318 373.177 513.812 373.168C514.216 373.335 514.619 373.527 515.031 373.669C523.397 376.432 529.828 381.181 531.829 390.478C532.06 393.057 532.06 395.636 531.813 398.215C531.656 398.715 531.459 399.208 531.343 399.717C527.457 416.217 517.205 427.542 502.992 435.704C499.435 437.749 495.597 439.051 491.793 440.478C491.497 440.52 491.208 440.562 490.912 440.595C490.467 440.579 490.014 440.57 489.57 440.553C488.121 441.263 486.597 440.921 485.098 440.896C483.303 440.12 481.319 439.936 479.598 438.843C476.181 436.656 474.69 433.226 473.471 429.579C473.471 427.167 473.471 424.763 473.463 422.351C474.245 421.875 473.891 420.991 474.163 420.315C478.363 409.632 485.798 403.03 497.195 401.344C498.397 401.344 499.591 401.353 500.793 401.353C504.581 402.212 508.048 403.514 509.365 407.762C509.365 408.672 509.365 409.582 509.357 410.5C507.15 415.633 502.943 418.47 498.092 420.573C497.302 420.69 496.52 420.849 495.729 420.924C494.708 421.024 493.843 420.89 493.646 419.563C493.481 418.428 493.819 417.719 494.922 417.385C495.252 417.285 495.548 417.076 495.853 416.909C498.529 415.557 500.513 413.321 502.811 411.476C504.729 409.932 504.161 407.696 501.773 406.861C501.156 406.644 500.505 406.535 499.871 406.369C498.825 406.394 497.78 406.41 496.726 406.435C495.968 406.26 495.276 406.519 494.543 406.711C490.945 407.679 487.939 409.54 485.247 412.177C481.689 415.649 478.783 419.388 478.181 424.546C477.375 425.973 478.181 427.317 478.387 428.686C479.31 432.808 481.805 435.237 485.947 435.888C486.572 435.922 487.231 436.155 487.791 435.654C490.896 435.513 493.753 434.428 496.503 433.109C507.06 428.051 515.64 420.648 521.66 410.45C523.957 406.561 525.686 402.354 526.279 397.764C526.279 397.605 526.287 397.438 526.287 397.28C526.699 396.746 527.078 396.203 526.765 395.477C526.748 394.567 526.74 393.658 526.724 392.748C526.757 392.306 526.888 391.838 526.798 391.413C525.085 383.167 518.209 378.977 510.642 377.325C510.485 377.333 510.329 377.341 510.172 377.35C509.752 377.108 509.423 376.649 508.847 376.807C505.108 376.498 501.362 376.298 497.623 376.816C497.244 376.774 496.89 376.816 496.709 377.233C495.951 377.375 495.112 376.941 494.428 377.575C489.627 378.418 485.527 380.922 481.484 383.442C477.16 386.13 473.233 389.401 469.519 392.882C466.579 395.644 463.508 398.331 461.202 401.728C460.914 402.045 460.617 402.354 460.329 402.671C459.012 403.664 458.024 404.95 457.167 406.352C457.167 406.352 457.175 406.344 457.184 406.344C453.61 410.024 451.041 414.447 448.439 418.812C446.347 422.368 444.98 426.274 444.552 430.455Z" fill="#1FA3FF"/>
<path d="M1128.38 803.848C1126.57 802.273 1124.69 800.748 1122.93 799.091C1120.78 797.064 1119.25 794.662 1120.28 791.586C1121.28 788.571 1123.97 787.766 1126.77 787.45C1131.83 786.886 1136.88 786.336 1141.97 786.392C1142.97 786.408 1143.98 786.443 1144.95 786.663C1146.52 787.015 1147.57 788.027 1147.53 789.718C1147.49 791.36 1146.31 792.109 1144.83 792.265C1141.31 792.642 1137.78 792.929 1134.26 793.261C1132.91 793.392 1131.55 793.52 1130.2 793.723C1128.79 793.927 1128.71 794.571 1129.75 795.44C1131.28 796.72 1132.89 797.913 1134.35 799.271C1138.42 803.036 1137.95 807.572 1133.02 810.096C1129.81 811.739 1126.31 812.81 1122.93 814.139C1122.27 814.401 1121.5 814.475 1120.99 815.348C1123.31 817.024 1125.66 818.699 1127.98 820.397C1128.86 821.041 1129.74 821.69 1130.55 822.417C1134.89 826.351 1134.25 831.041 1128.9 833.389C1125.41 834.916 1121.78 836.11 1118.21 837.442C1117.46 837.725 1116.63 837.858 1116.03 838.68C1117.24 839.97 1118.96 840.381 1120.4 841.252C1125.54 844.406 1125.59 849.204 1120.47 852.381C1116.83 854.648 1112.76 856.018 1108.93 857.892C1107.16 858.764 1106.97 859.462 1108.63 860.678C1109.86 861.58 1111.04 862.63 1112.04 863.789C1115.98 868.398 1115.38 872.784 1110.14 875.778C1104.79 878.831 1099.25 881.571 1093.55 883.935C1092.63 884.323 1091.73 884.744 1090.78 885.061C1090.19 885.268 1089.69 886.369 1088.96 885.42C1088.46 884.759 1088.79 884.017 1089.19 883.387C1090.71 880.934 1092.98 879.271 1095.3 877.672C1098.74 875.305 1102.18 872.938 1105.67 870.642C1107.33 869.56 1107.18 868.649 1105.73 867.564C1104.06 866.308 1102.4 865.039 1100.8 863.705C1096.72 860.314 1096.91 856.519 1101.56 853.907C1105.35 851.784 1109.4 850.133 1113.34 848.25C1114.04 847.917 1115.17 847.827 1115.16 846.903C1115.16 845.97 1114.01 845.909 1113.32 845.546C1111.96 844.816 1110.49 844.262 1109.22 843.408C1105.39 840.83 1105.34 836.72 1109.05 833.975C1111.72 831.996 1114.94 831.183 1117.97 829.99C1119.83 829.255 1121.72 828.629 1123.61 827.981C1125.09 827.475 1125.03 826.82 1123.86 826.004C1121.98 824.72 1120.11 823.437 1118.24 822.154C1117.42 821.59 1116.56 821.056 1115.77 820.463C1110.18 816.284 1110.71 811.531 1117.11 808.812C1120.12 807.54 1123.18 806.39 1126.22 805.192C1126.97 804.895 1127.83 804.797 1128.38 803.848Z" fill="#F7F7F7"/>
<path d="M1134.03 914.224C1136.27 913.03 1138.5 911.793 1140.77 910.664C1142.7 909.707 1143.17 908.874 1140.87 907.743C1139.41 907.017 1138.02 906.142 1136.67 905.224C1131.23 901.584 1131.45 896.965 1137.21 893.968C1139.3 892.881 1141.49 891.979 1143.6 890.935C1146.26 889.63 1146.34 889.233 1144.48 887.015C1143.73 886.105 1142.86 885.284 1142.21 884.311C1140.36 881.577 1140.98 878.935 1143.99 877.56C1148.57 875.47 1153.45 874.419 1158.46 873.975C1160.03 873.839 1161.52 874.144 1161.82 875.968C1162.11 877.815 1160.59 878.1 1159.24 878.473C1156.09 879.331 1152.96 880.289 1149.79 881.107C1148.01 881.571 1147.25 882.128 1149.07 883.587C1149.55 883.982 1149.95 884.5 1150.34 885.002C1153.49 888.982 1152.85 892.914 1148.46 895.562C1146.61 896.683 1144.57 897.492 1142.62 898.468C1142.01 898.771 1141.1 898.87 1141.13 899.801C1141.16 900.521 1141.9 900.745 1142.43 901.069C1144.27 902.229 1146.25 903.198 1147.95 904.541C1151.38 907.264 1151.4 910.862 1148.2 913.85C1146.11 915.808 1143.55 916.992 1140.99 918.176C1135.87 920.536 1131.15 923.648 1126.12 926.176C1124.53 926.983 1122.26 928.645 1120.99 926.925C1119.63 925.066 1121.82 923.292 1123.14 921.902C1126.28 918.646 1130.19 916.481 1134.03 914.224Z" fill="#F7F7F7"/>
<path d="M1353.44 846.902C1357.43 843.692 1361.69 841.622 1367.1 841.822C1372.1 842.012 1375.79 846.122 1375.07 851.552C1374.33 857.092 1371.59 861.792 1368.11 866.062C1362.25 873.232 1355.53 879.492 1347.84 884.662C1344.44 886.952 1340.81 888.942 1336.46 888.822C1333.01 888.732 1330.79 886.242 1330.6 882.842C1330.17 875.402 1332.83 868.772 1335.56 862.112C1339.43 852.682 1345.78 845.012 1352.88 837.972C1359.14 831.772 1366.83 828.112 1375.73 828.002C1386.47 827.872 1390.96 833.902 1389.21 844.832C1387.78 853.732 1383.46 861.582 1377.66 868.492C1371.96 875.292 1365.48 881.362 1359.15 887.562C1348.9 897.612 1338.37 907.362 1326.45 915.462C1323.53 917.442 1322.53 917.712 1320 917.432C1326.33 912.212 1331.64 906.302 1337.46 900.922C1346.18 892.862 1354.73 884.602 1362.69 875.792C1368.06 869.852 1373.61 864.002 1377.34 856.782C1380.17 851.292 1383.01 845.822 1382.89 839.352C1382.84 836.242 1380.71 834.022 1377.46 833.752C1368.51 833.002 1361.37 836.452 1355.44 842.922C1354.59 843.842 1353.67 844.702 1352.78 845.582C1344.06 854.502 1338.34 865.052 1335.75 877.252C1335.33 879.222 1334.3 881.802 1336.18 883.102C1338.01 884.372 1340.2 882.732 1341.93 881.642C1351.41 875.652 1359.4 868.062 1365.87 858.902C1367.55 856.522 1368.78 853.852 1369.18 850.922C1369.61 847.822 1368.17 846.262 1365.04 846.392C1364.06 846.432 1362.99 846.552 1362.12 846.962C1355.83 849.962 1351.06 854.502 1348.48 861.082C1347.93 862.472 1347.13 864.372 1348.6 865.332C1349.88 866.172 1350.9 864.362 1351.95 863.622C1352.76 863.052 1353.45 862.312 1354.19 861.632C1356.72 859.292 1359.24 856.932 1361.78 854.592C1362.55 853.892 1363.46 853.272 1364.42 854.122C1365.25 854.852 1364.8 855.792 1364.4 856.622C1364.12 857.192 1363.86 857.792 1363.48 858.282C1360.49 862.092 1357.06 865.452 1353.21 868.372C1351.22 869.872 1348.95 870.622 1346.61 869.262C1344.27 867.912 1343.88 865.522 1344.06 863.072C1344.32 859.522 1345.86 856.432 1347.95 853.642C1349.7 851.312 1351.61 849.142 1353.44 846.902Z" fill="#E5722A"/>
<path d="M166.398 322.696C166.695 323.16 166.994 323.609 167.291 324.073C167.483 324.999 167.649 325.942 168.386 326.636C168.169 327.674 168.995 328.392 169.219 329.295C171.479 336.488 171.464 343.348 166.231 349.421C160.607 353.769 154.096 354.68 147.184 354.872C140.627 355.048 134.218 354.246 127.966 352.703C119.231 350.544 111.069 346.844 103.441 341.911C94.9559 336.428 89.0562 328.776 83.8062 320.393C82.7637 318.731 81.7958 317.054 81.084 315.272C77.9132 307.274 82.6799 300.879 91.3985 301.346C96.2103 301.6 100.676 303.093 104.933 305.179C112.531 308.892 120.04 312.74 125.279 319.755C126.044 320.771 126.765 321.828 127.384 322.932C128.994 325.782 128.753 328.7 126.822 330.707C125.289 332.304 121.629 332.676 119.208 331.324C114.035 328.424 109.286 324.926 104.825 321.035C104.36 320.627 103.774 320.133 104.312 319.188C104.863 318.21 105.467 318.643 106.108 318.795C109.571 319.631 112.438 321.732 115.541 323.329C117.467 324.318 119.278 325.509 121.96 326.254C120.055 322.452 117.92 319.442 114.767 317.332C108.533 313.148 101.931 309.644 94.6684 307.609C92.8897 307.114 90.9493 307.035 89.074 307.033C87.0268 307.029 85.7694 309.445 86.5898 312.016C88.2241 317.112 91.3747 321.377 94.8274 325.323C103.412 335.13 114.275 341.288 126.747 344.836C134.817 347.139 142.977 348.152 151.343 347.548C153.914 347.36 156.421 346.852 158.763 345.825C162.393 344.234 163.852 341.142 163.769 337.354C163.675 332.882 162.453 328.679 160.379 324.702C159.514 323.051 159.128 321.213 158.081 319.579C154.618 314.18 150.038 309.835 145.688 305.209C141.115 300.348 135.992 296.222 130.683 292.284C119.524 283.995 107.556 277.032 94.7516 271.671C88.1328 268.897 81.2701 266.597 74.0104 265.971C72.3233 265.327 70.5873 265.508 68.8355 265.579C67.2499 265.643 67.072 266.387 67.6659 267.63C66.7834 268.534 66.0919 268.028 65.4135 267.33C64.4832 266.198 64.298 265 65.0233 263.695C66.1397 262.69 67.3745 261.943 68.9056 261.783C71.5094 261.73 74.1214 261.672 76.7252 261.619C76.7252 261.619 76.6974 261.614 76.6917 261.606C79.2464 262.062 81.7986 262.532 84.3533 262.988C84.5596 263.039 84.7657 263.091 84.972 263.143C86.2001 264.178 87.7419 263.997 89.1752 264.257L89.1335 264.249C89.3119 264.454 89.4481 264.774 89.6657 264.842C101.906 268.318 112.922 274.347 123.693 280.935C127.497 283.263 130.898 286.222 134.947 288.149C135.808 289.462 137.37 289.925 138.422 291.021C142.365 294.481 146.308 297.941 150.254 301.387C151.031 302.175 151.8 302.968 152.577 303.756C153.235 304.407 153.893 305.058 154.56 305.703C154.968 306.345 155.229 307.125 156.044 307.424C156.542 307.931 157.031 308.444 157.528 308.951C160.309 312.998 163.083 317.036 165.872 321.078C165.811 321.692 165.825 322.291 166.398 322.696Z" fill="#F7F7F7"/>
<path d="M156.326 237.54C156.876 237.56 157.416 237.57 157.966 237.59C158.836 237.96 159.706 238.36 160.696 238.15C161.426 238.92 162.486 238.65 163.356 238.98C170.556 241.22 176.186 245.14 178.196 252.9C178.566 260 175.606 265.87 171.826 271.66C168.236 277.15 163.926 281.96 159.096 286.22C152.346 292.17 144.656 296.77 136.256 300.23C126.916 304.08 117.266 304.57 107.386 304.11C105.426 304.02 103.496 303.86 101.626 303.43C93.2456 301.48 90.7056 293.92 96.0556 287.02C99.0056 283.21 102.776 280.39 106.916 278.08C114.296 273.95 121.736 269.97 130.486 269.66C131.756 269.61 133.036 269.62 134.296 269.74C137.556 270.04 139.816 271.9 140.366 274.63C140.806 276.8 139.026 280.02 136.536 281.24C131.206 283.84 125.626 285.75 119.886 287.2C119.286 287.35 118.546 287.55 118.076 286.57C117.586 285.56 118.286 285.31 118.776 284.87C121.436 282.5 124.796 281.34 127.876 279.7C129.786 278.68 131.796 277.87 133.936 276.09C129.726 275.49 126.036 275.53 122.506 276.92C115.516 279.66 108.876 283.09 103.066 287.9C101.646 289.08 100.476 290.63 99.4057 292.17C98.2357 293.85 99.5057 296.26 102.086 297.05C107.206 298.61 112.506 298.45 117.716 297.86C130.666 296.39 141.916 290.97 151.936 282.74C158.426 277.42 163.906 271.29 168.176 264.07C169.486 261.85 170.496 259.5 170.986 256.99C171.746 253.1 170.036 250.14 166.876 248.05C163.146 245.58 158.996 244.19 154.546 243.63C152.696 243.4 150.966 242.67 149.026 242.6C142.616 242.37 136.436 243.66 130.156 244.6C123.556 245.59 117.246 247.45 110.986 249.57C97.8156 254.02 85.2756 259.89 73.5756 267.36C67.5256 271.22 61.7256 275.55 57.0756 281.16C55.5856 282.18 54.7456 283.71 53.8056 285.19C52.9556 286.53 53.4656 287.1 54.8256 287.32C55.0656 288.56 54.2556 288.84 53.2956 289C51.8356 289.12 50.7457 288.59 50.0857 287.25C49.8957 285.76 49.9857 284.32 50.7257 282.97C52.1657 280.8 53.6056 278.62 55.0456 276.45C55.0456 276.45 55.0256 276.47 55.0156 276.47C56.8456 274.63 58.6856 272.8 60.5156 270.96C60.6756 270.82 60.8356 270.68 60.9956 270.54C62.5456 270.12 63.2756 268.75 64.3056 267.72L64.2757 267.75C64.5457 267.72 64.8856 267.79 65.0656 267.65C74.8956 259.57 86.1256 253.95 97.6756 248.85C101.756 247.05 106.126 245.94 110.016 243.71C111.586 243.75 112.856 242.73 114.356 242.49C119.446 241.22 124.536 239.95 129.616 238.67C130.706 238.48 131.796 238.3 132.886 238.11C133.796 237.94 134.706 237.77 135.616 237.59C136.376 237.62 137.166 237.85 137.876 237.35C138.576 237.23 139.276 237.12 139.976 237C144.886 237.02 149.786 237.04 154.696 237.05C155.166 237.45 155.666 237.78 156.326 237.54Z" fill="#4B9A67"/>
<path d="M1116.45 499.501C1121.42 503.243 1126.16 506.782 1130.86 510.364C1132.82 511.857 1134.73 513.414 1136.39 515.241C1136.68 515.557 1137.26 515.973 1136.67 516.462C1136.16 516.889 1135.68 516.411 1135.41 516.068C1134.48 514.875 1133.22 514.109 1132.02 513.268C1126.51 509.383 1120.96 505.553 1115.46 501.654C1114.63 501.062 1114.05 500.992 1113.16 501.583C1109.73 503.85 1106.24 506.023 1102.77 508.229C1103.01 508.95 1103.64 509.126 1104.1 509.447C1112.24 515.026 1120.48 520.472 1128.3 526.478C1129 527.009 1129.67 527.582 1130.31 528.171C1130.52 528.366 1130.86 528.599 1130.58 528.996C1130.16 529.59 1129.93 528.959 1129.69 528.817C1120.27 523.195 1111.09 517.208 1102.02 511.055C1100.56 510.071 1099.61 510.184 1098.27 511.092C1093 514.647 1087.6 517.988 1082.07 521.126C1081.74 521.313 1081.41 521.559 1081.05 521.641C1080.58 521.749 1079.95 522.3 1079.62 521.563C1079.34 520.923 1079.99 520.735 1080.43 520.394C1085.95 516.177 1091.69 512.265 1097.01 508.675C1094.05 506.4 1091.02 504.061 1087.98 501.751C1087.24 501.185 1086.74 501.908 1086.23 502.229C1082.5 504.628 1078.8 507.071 1075.08 509.498C1074.8 509.675 1074.52 509.829 1074.24 510.012C1073.72 510.348 1073.11 510.755 1072.65 510.103C1072.23 509.499 1072.9 509.125 1073.29 508.787C1076.72 505.8 1080.39 503.107 1084.12 500.495C1084.34 500.339 1084.55 500.162 1084.82 499.949C1084.55 499.271 1083.87 499.084 1083.36 498.766C1079.72 496.517 1076.05 494.31 1072.42 492.055C1071.63 491.571 1070.91 490.965 1070.22 490.348C1069.79 489.965 1069.58 489.312 1069.9 488.851C1070.3 488.28 1070.85 488.649 1071.35 488.932C1075.04 490.983 1078.75 493.011 1082.44 495.047C1083.12 495.417 1083.86 495.719 1084.41 496.227C1086.59 498.221 1088.47 497.883 1090.63 496.023C1092.74 494.21 1095.13 492.701 1097.48 491.193C1098.73 490.393 1098.46 490.049 1097.43 489.352C1092.61 486.089 1088.2 482.303 1083.77 478.551C1083.03 477.919 1081.69 477.08 1082.5 476.069C1083.46 474.873 1084.44 476.222 1085.26 476.816C1090.2 480.369 1094.8 484.366 1099.81 487.819C1100.69 488.422 1101.3 488.584 1102.26 487.902C1108.22 483.675 1114.68 480.239 1120.99 476.585C1121.81 476.111 1122.77 475.545 1123.48 476.555C1124.23 477.62 1123.46 478.374 1122.59 478.98C1117.63 482.432 1112.2 485.129 1107.15 488.438C1106.46 488.889 1105.79 489.369 1105.06 489.748C1104.08 490.256 1103.85 490.652 1104.92 491.385C1107.55 493.17 1110.14 495.016 1112.7 496.912C1113.46 497.474 1113.98 497.382 1114.72 496.897C1119.36 493.862 1124.05 490.903 1128.48 487.569C1129.7 486.644 1130.97 485.762 1132.38 485.14C1133.1 484.824 1133.85 484.656 1134.61 484.997C1135.12 485.225 1135.34 485.638 1135.36 486.174C1135.37 486.745 1135 486.926 1134.52 486.963C1134.06 486.995 1133.68 487.215 1133.34 487.494C1128.04 491.873 1122.56 495.974 1116.45 499.501ZM1111.26 499.181C1108.17 496.922 1105.13 494.703 1102.09 492.476C1101.63 492.137 1101.25 492.179 1100.76 492.51C1097.44 494.75 1094.1 496.964 1090.75 499.166C1090.08 499.608 1090.13 499.888 1090.76 500.32C1093.62 502.26 1096.45 504.234 1099.29 506.208C1099.73 506.51 1100.09 506.661 1100.61 506.305C1104.19 503.884 1107.8 501.495 1111.26 499.181Z" fill="#F7F7F7"/>
<path d="M1070.31 477.955C1074.86 473.711 1079.16 469.655 1083.51 465.647C1085.32 463.976 1087.18 462.366 1089.27 461.046C1089.63 460.816 1090.14 460.314 1090.52 460.98C1090.85 461.561 1090.3 461.948 1089.92 462.154C1088.58 462.862 1087.61 463.976 1086.57 465.006C1081.79 469.758 1077.05 474.559 1072.26 479.299C1071.53 480.02 1071.36 480.577 1071.79 481.558C1073.42 485.329 1074.96 489.143 1076.53 492.945C1077.28 492.83 1077.56 492.243 1077.96 491.837C1084.87 484.79 1091.66 477.628 1098.93 470.963C1099.58 470.37 1100.26 469.813 1100.95 469.28C1101.18 469.104 1101.47 468.808 1101.81 469.153C1102.32 469.673 1101.66 469.794 1101.48 470C1094.31 478.3 1086.82 486.304 1079.18 494.174C1077.96 495.434 1077.91 496.39 1078.57 497.867C1081.16 503.673 1083.51 509.576 1085.64 515.57C1085.76 515.927 1085.95 516.29 1085.97 516.659C1085.99 517.144 1086.43 517.858 1085.64 518.052C1084.96 518.221 1084.89 517.549 1084.63 517.053C1081.44 510.884 1078.58 504.557 1075.97 498.691C1073.21 501.215 1070.39 503.788 1067.58 506.386C1066.9 507.015 1067.52 507.633 1067.75 508.184C1069.47 512.276 1071.23 516.351 1072.97 520.431C1073.1 520.734 1073.2 521.043 1073.33 521.345C1073.58 521.914 1073.87 522.586 1073.15 522.925C1072.48 523.234 1072.23 522.514 1071.96 522.072C1069.62 518.173 1067.6 514.092 1065.68 509.97C1065.56 509.721 1065.42 509.485 1065.26 509.176C1064.54 509.334 1064.24 509.963 1063.84 510.418C1060.99 513.608 1058.19 516.835 1055.33 520.025C1054.72 520.716 1054 521.321 1053.27 521.896C1052.82 522.253 1052.14 522.344 1051.74 521.945C1051.25 521.454 1051.71 520.982 1052.07 520.534C1054.73 517.259 1057.37 513.959 1060.02 510.672C1060.5 510.072 1060.93 509.388 1061.52 508.934C1063.86 507.142 1063.86 505.229 1062.4 502.777C1060.98 500.386 1059.91 497.77 1058.84 495.191C1058.26 493.823 1057.88 494.029 1057.01 494.925C1052.96 499.102 1048.47 502.789 1044 506.501C1043.25 507.124 1042.19 508.299 1041.34 507.324C1040.33 506.168 1041.83 505.441 1042.55 504.733C1046.91 500.489 1051.65 496.65 1055.92 492.31C1056.66 491.547 1056.93 490.978 1056.42 489.918C1053.29 483.313 1051.03 476.357 1048.53 469.504C1048.2 468.614 1047.81 467.573 1048.93 467.046C1050.11 466.489 1050.72 467.385 1051.16 468.348C1053.7 473.833 1055.42 479.644 1057.8 485.19C1058.13 485.947 1058.48 486.698 1058.73 487.479C1059.06 488.526 1059.41 488.829 1060.32 487.896C1062.53 485.62 1064.8 483.386 1067.11 481.2C1067.79 480.547 1067.79 480.02 1067.44 479.203C1065.26 474.111 1063.16 468.977 1060.65 464.037C1059.95 462.669 1059.3 461.27 1058.93 459.769C1058.74 459.006 1058.71 458.243 1059.18 457.547C1059.49 457.087 1059.94 456.942 1060.47 457.02C1061.03 457.105 1061.15 457.499 1061.1 457.983C1061.05 458.443 1061.2 458.855 1061.42 459.236C1064.81 465.211 1067.9 471.326 1070.31 477.955ZM1069.09 483.011C1066.33 485.662 1063.62 488.272 1060.9 490.875C1060.48 491.274 1060.46 491.656 1060.7 492.195C1062.33 495.851 1063.93 499.526 1065.52 503.201C1065.84 503.94 1066.12 503.946 1066.66 503.395C1069.06 500.919 1071.5 498.467 1073.94 496.015C1074.31 495.639 1074.52 495.313 1074.26 494.731C1072.5 490.784 1070.77 486.819 1069.09 483.011Z" fill="#4C9A67"/>
<path d="M1101.99 802.217C1099.7 802.947 1097.42 803.758 1095.09 804.398C1092.24 805.178 1089.39 805.237 1087.3 802.757C1085.25 800.327 1085.96 797.618 1087.15 795.058C1089.3 790.448 1091.46 785.848 1094.16 781.528C1094.69 780.688 1095.25 779.837 1095.94 779.127C1097.06 777.967 1098.47 777.598 1099.89 778.518C1101.27 779.408 1101.3 780.798 1100.66 782.148C1099.15 785.348 1097.56 788.507 1096.01 791.687C1095.42 792.907 1094.82 794.138 1094.29 795.398C1093.73 796.708 1094.24 797.108 1095.52 796.678C1097.41 796.038 1099.27 795.278 1101.19 794.738C1106.52 793.228 1110.15 795.987 1109.74 801.507C1109.47 805.107 1108.56 808.658 1107.94 812.228C1107.82 812.928 1107.48 813.628 1107.96 814.518C1110.6 813.408 1113.25 812.278 1115.91 811.178C1116.92 810.758 1117.93 810.347 1118.97 810.037C1124.59 808.377 1128.26 811.367 1127.48 817.157C1126.97 820.927 1126.1 824.648 1125.38 828.388C1125.23 829.178 1124.91 829.958 1125.3 830.898C1127.03 830.538 1128.28 829.278 1129.77 828.507C1135.14 825.757 1139.26 828.217 1139.31 834.237C1139.35 838.527 1138.4 842.718 1138.01 846.958C1137.83 848.928 1138.33 849.448 1140.23 848.668C1141.64 848.088 1143.15 847.627 1144.66 847.377C1150.65 846.407 1154.08 849.207 1153.91 855.237C1153.73 861.397 1153.19 867.548 1152.24 873.648C1152.09 874.638 1151.98 875.628 1151.76 876.598C1151.63 877.208 1152.31 878.208 1151.12 878.338C1150.29 878.428 1149.83 877.758 1149.5 877.088C1148.2 874.508 1147.96 871.708 1147.8 868.898C1147.57 864.728 1147.34 860.557 1147.2 856.377C1147.14 854.397 1146.28 854.058 1144.6 854.728C1142.66 855.498 1140.71 856.257 1138.74 856.927C1133.72 858.647 1130.58 856.507 1130.77 851.177C1130.93 846.837 1131.63 842.517 1132.07 838.177C1132.15 837.407 1132.66 836.398 1131.87 835.918C1131.07 835.438 1130.42 836.388 1129.75 836.788C1128.42 837.568 1127.18 838.537 1125.79 839.177C1121.6 841.097 1118.06 839.008 1117.65 834.408C1117.35 831.098 1118.33 827.927 1118.89 824.717C1119.23 822.747 1119.68 820.808 1120.11 818.858C1120.45 817.328 1119.86 817.038 1118.55 817.618C1116.48 818.548 1114.41 819.477 1112.34 820.407C1111.43 820.817 1110.53 821.268 1109.61 821.638C1103.13 824.238 1099.35 821.308 1100.36 814.428C1100.84 811.198 1101.45 807.988 1102.01 804.768C1102.15 803.968 1102.51 803.187 1101.99 802.217Z" fill="#F3CC4B"/>
<path d="M1199.17 854.854C1199.32 852.314 1199.42 849.774 1199.64 847.244C1199.83 845.094 1199.36 844.264 1197.2 845.634C1195.82 846.504 1194.35 847.234 1192.86 847.914C1186.92 850.664 1183.09 848.074 1183.53 841.594C1183.69 839.244 1184.06 836.904 1184.27 834.554C1184.54 831.604 1184.24 831.334 1181.38 831.764C1180.21 831.934 1179.06 832.244 1177.89 832.294C1174.59 832.454 1172.66 830.544 1173.05 827.264C1173.65 822.264 1175.29 817.554 1177.52 813.044C1178.22 811.634 1179.26 810.514 1180.97 811.214C1182.7 811.924 1182.15 813.374 1181.77 814.714C1180.86 817.854 1180.05 821.024 1179.1 824.154C1178.57 825.914 1178.65 826.854 1180.84 826.064C1181.43 825.854 1182.08 825.784 1182.71 825.714C1187.75 825.094 1190.77 827.694 1190.75 832.814C1190.74 834.984 1190.37 837.144 1190.19 839.314C1190.13 839.994 1189.74 840.824 1190.55 841.284C1191.18 841.634 1191.76 841.114 1192.31 840.834C1194.26 839.864 1196.12 838.674 1198.15 837.924C1202.26 836.414 1205.34 838.274 1206.23 842.554C1206.81 845.364 1206.49 848.164 1206.17 850.964C1205.52 856.564 1205.72 862.214 1205.26 867.824C1205.12 869.604 1205.36 872.404 1203.23 872.594C1200.93 872.794 1200.56 869.994 1200.06 868.144C1198.91 863.774 1199.1 859.304 1199.17 854.854Z" fill="#F3CC4B"/>
<path d="M115.17 823.854C115.32 821.314 115.42 818.774 115.64 816.244C115.83 814.094 115.36 813.264 113.2 814.634C111.82 815.504 110.35 816.234 108.86 816.914C102.92 819.664 99.0897 817.074 99.5297 810.594C99.6897 808.244 100.06 805.904 100.27 803.554C100.54 800.604 100.24 800.334 97.3797 800.764C96.2097 800.934 95.0597 801.244 93.8897 801.294C90.5897 801.454 88.6598 799.544 89.0498 796.264C89.6498 791.264 91.2897 786.554 93.5197 782.044C94.2197 780.634 95.2597 779.514 96.9697 780.214C98.6997 780.924 98.1497 782.374 97.7697 783.714C96.8597 786.854 96.0497 790.024 95.0997 793.154C94.5697 794.914 94.6497 795.854 96.8397 795.064C97.4297 794.854 98.0797 794.784 98.7097 794.714C103.75 794.094 106.77 796.694 106.75 801.814C106.74 803.984 106.37 806.144 106.19 808.314C106.13 808.994 105.74 809.824 106.55 810.284C107.18 810.634 107.76 810.114 108.31 809.834C110.26 808.864 112.12 807.674 114.15 806.924C118.26 805.414 121.34 807.274 122.23 811.554C122.81 814.364 122.49 817.164 122.17 819.964C121.52 825.564 121.72 831.214 121.26 836.824C121.12 838.604 121.36 841.404 119.23 841.594C116.93 841.794 116.56 838.994 116.06 837.144C114.91 832.774 115.1 828.304 115.17 823.854Z" fill="#1FA3FF"/>
<path d="M148.692 627.216C149.614 631.129 149.884 634.383 149.737 637.66C149.661 639.268 150.295 640.139 151.702 640.803C155.641 642.659 159.434 642.438 163.155 640.274C166.284 638.457 168.672 635.838 170.732 632.941C175.425 626.362 179.992 619.691 184.674 613.104C186.193 610.964 187.873 608.927 189.972 607.279C190.719 606.687 191.401 606.163 192.388 606.799C193.472 607.493 192.707 608.214 192.428 608.904C187.694 620.601 181.33 631.403 173.265 641.037C167.242 648.233 159.449 651.225 150.13 647.404C148.597 646.772 148.446 647.76 148.173 648.716C146.936 652.941 144.985 656.832 142.436 660.4C136.271 669.025 126.967 672.041 117.026 668.45C115.095 667.754 114.712 668.605 114.082 669.941C109.979 678.476 103.685 684.523 94.3446 686.949C79.9432 690.693 66.3543 677.464 69.9404 663.242C70.4131 661.367 71.158 659.63 72.3623 658.117C73.1658 657.097 74.1304 656.305 75.4365 656.004C77.0042 655.637 78.4506 655.847 79.107 657.454C79.7659 659.072 78.5075 660.372 77.3589 660.643C75.2485 661.149 75.0095 662.644 74.7053 664.207C73.6003 669.926 74.9781 674.817 79.6546 678.56C84.9419 682.798 90.6005 682.856 96.5022 680.014C102.723 677.008 106.596 671.907 109.3 665.74C109.901 664.37 109.146 663.798 108.331 663.025C104.263 659.2 101.768 654.623 101.757 648.899C101.753 645.919 102.336 643.098 104.053 640.639C106.004 637.842 108.621 636.207 112.167 636.76C115.045 637.204 116.993 639.629 117.682 643.437C118.66 648.863 118.517 654.306 117.434 659.668C117.013 661.746 117.746 662.437 119.463 662.939C125.378 664.696 130.651 663.603 134.968 659.152C138.98 655.006 141.237 649.882 142.505 644.276C142.845 642.776 142.165 641.927 141.274 640.937C137.595 636.857 134.953 632.308 134.925 626.599C134.923 626.063 134.957 625.507 135.037 624.971C135.453 622.141 136.411 619.618 139.426 618.655C141.88 617.876 144.483 619.268 146.474 622.187C147.623 623.948 148.41 625.864 148.692 627.216ZM111.562 657.756C111.726 656.208 111.947 655.048 111.952 653.891C111.972 651.09 111.961 648.286 111.848 645.488C111.802 644.375 112.004 642.734 110.539 642.57C109.126 642.414 108.511 643.891 108.017 645.069C106.349 649.104 107.581 653.868 111.562 657.756ZM141.12 626.613C141.205 628.531 141.256 630.478 142.865 631.937C142.535 630.03 142.195 628.207 141.12 626.613Z" fill="#E57128"/>
<path d="M259.553 473.001C264.59 472.934 267.6 475.243 269.357 479.335C270.055 480.966 270.528 482.694 271.189 484.347C271.692 485.616 272.195 486.914 272.923 488.054C274.485 490.492 276.091 490.923 278.666 489.586C282.179 487.767 285.588 485.744 289.124 483.978C293.042 482.03 297.164 481.018 301.586 481.97C305.077 482.724 307.847 484.619 310.039 487.367C312.306 490.198 312.554 493.316 311.06 496.622C309.566 499.928 307.126 502.525 304.859 505.25C301.3 509.538 299.889 514.218 301.661 519.759C302.839 523.466 303.725 527.286 302.997 531.271C302.261 535.31 300.535 538.858 297.547 541.613C292.089 546.641 286.001 546.022 281.534 540.081C280.265 538.398 279.297 536.488 278.178 534.691C277.713 533.944 277.277 533.144 276.692 532.494C275.025 530.63 273.238 530.66 271.714 532.638C269.92 534.97 268.178 537.326 265.866 539.19C262.946 541.553 259.658 542.602 255.949 541.961C251.873 541.251 249.223 536.994 249.591 532.245C249.906 528.176 251.565 524.749 254.087 521.654C258.794 515.872 259.29 509.697 255.319 503.522C251.43 497.46 248.795 491.051 249.013 483.698C249.245 476.7 253.036 473.009 259.553 473.001ZM254.726 532.487C254.688 536.375 256.813 537.801 260.431 536.322C261.775 535.771 262.923 534.94 263.982 533.944C265.589 532.434 266.812 530.615 268.216 528.939C269.89 526.946 271.962 525.851 274.635 525.934C278.366 526.04 280.595 528.259 282.292 531.271C283.606 533.589 284.739 536.012 286.721 537.892C289.116 540.157 291.271 540.255 293.733 538.096C294.717 537.235 295.482 536.208 296.143 535.061C298.53 530.894 297.862 526.614 296.713 522.303C296.023 519.722 295.235 517.125 295.445 514.445C295.85 509.221 297.982 504.699 301.345 500.729C302.974 498.804 304.664 496.909 305.812 494.622C306.48 493.293 306.608 491.972 305.677 490.749C303.95 488.469 301.773 487.02 298.785 486.914C295.152 486.786 292.006 488.19 288.913 489.82C286.016 491.345 283.2 493.036 280.235 494.425C275.963 496.433 272.285 495.407 269.365 491.723C267.848 489.813 266.917 487.631 266.144 485.344C265.483 483.404 264.965 481.411 263.839 479.652C262.368 477.35 260.146 477.621 257.976 477.931C256.002 478.21 254.62 479.244 254.215 481.411C253.832 483.464 253.757 485.495 254.132 487.533C254.913 491.806 256.37 495.829 258.494 499.634C260.356 502.963 262.541 506.33 262.841 510.172C263.246 515.419 261.94 520.333 258.246 524.417C256.212 526.659 254.65 529.241 254.726 532.487Z" fill="#FAFAFA"/>
<path d="M232.553 458.001C237.59 457.934 240.6 460.243 242.357 464.335C243.055 465.966 243.528 467.694 244.189 469.347C244.692 470.616 245.195 471.914 245.923 473.054C247.485 475.492 249.091 475.923 251.666 474.586C255.179 472.767 258.588 470.744 262.124 468.978C266.042 467.03 270.164 466.018 274.586 466.97C278.077 467.724 280.847 469.619 283.039 472.367C285.306 475.198 285.554 478.316 284.06 481.622C282.566 484.928 280.126 487.525 277.859 490.25C274.3 494.538 272.889 499.218 274.661 504.759C275.839 508.466 276.725 512.286 275.997 516.271C275.261 520.31 273.535 523.858 270.547 526.613C265.089 531.641 259.001 531.022 254.534 525.081C253.265 523.398 252.297 521.488 251.178 519.691C250.713 518.944 250.277 518.144 249.692 517.494C248.025 515.63 246.238 515.66 244.714 517.638C242.92 519.97 241.178 522.326 238.866 524.19C235.946 526.553 232.658 527.602 228.949 526.961C224.873 526.251 222.223 521.994 222.591 517.245C222.906 513.176 224.565 509.749 227.087 506.654C231.794 500.872 232.29 494.697 228.319 488.522C224.43 482.46 221.795 476.051 222.013 468.698C222.245 461.7 226.036 458.009 232.553 458.001ZM227.726 517.487C227.688 521.375 229.813 522.801 233.431 521.322C234.775 520.771 235.923 519.94 236.982 518.944C238.589 517.434 239.812 515.615 241.216 513.939C242.89 511.946 244.962 510.851 247.635 510.934C251.366 511.04 253.595 513.259 255.292 516.271C256.606 518.589 257.739 521.012 259.721 522.892C262.116 525.157 264.271 525.255 266.733 523.096C267.717 522.235 268.482 521.208 269.143 520.061C271.53 515.894 270.862 511.614 269.713 507.303C269.023 504.722 268.235 502.125 268.445 499.445C268.85 494.221 270.982 489.699 274.345 485.729C275.974 483.804 277.664 481.909 278.812 479.622C279.48 478.293 279.608 476.972 278.677 475.749C276.95 473.469 274.773 472.02 271.785 471.914C268.152 471.786 265.006 473.19 261.913 474.82C259.016 476.345 256.2 478.036 253.235 479.425C248.963 481.433 245.285 480.407 242.365 476.723C240.848 474.813 239.917 472.631 239.144 470.344C238.483 468.404 237.965 466.411 236.839 464.652C235.368 462.35 233.146 462.621 230.976 462.931C229.002 463.21 227.62 464.244 227.215 466.411C226.832 468.464 226.757 470.495 227.132 472.533C227.913 476.806 229.37 480.829 231.494 484.634C233.356 487.963 235.541 491.33 235.841 495.172C236.246 500.419 234.94 505.333 231.246 509.417C229.212 511.659 227.65 514.241 227.726 517.487Z" fill="#4EA0F7"/>
<path d="M250.821 792.367C250.831 794.645 250.611 797.328 251.081 799.991C251.536 802.569 252.391 803.505 254.955 804.071C255.93 804.286 256.915 804.446 257.9 804.601C264.443 805.622 270.447 811.374 271.717 817.857C273.217 825.511 268.628 830.131 260.989 828.679C258.59 828.224 256.2 827.658 253.735 827.618C249.741 827.558 247.677 829.005 246.477 832.839C245.502 835.968 245.212 839.242 244.527 842.435C243.203 848.613 239.238 851.921 232.939 851.997C231.535 852.012 230.14 851.987 228.735 851.736C222.991 850.7 220.202 846.65 221.282 840.849C221.817 837.97 223.011 835.307 223.911 832.544C224.306 831.337 224.656 830.116 224.981 828.885C225.256 827.853 224.901 827.238 223.756 827.118C221.502 826.882 219.242 826.672 217.013 826.307C212.778 825.616 209.329 823.643 207.129 819.814C206.535 818.778 206.205 817.651 206.065 816.46C205.55 812.045 208.144 808.936 212.578 808.666C214.503 808.551 216.393 808.846 218.242 809.312C220.057 809.772 221.887 809.998 223.746 810.018C225.786 810.033 227.286 809.046 228.4 807.399C230.055 804.952 230.53 802.123 230.97 799.29C231.61 795.165 232.09 791.01 233.749 787.111C235.294 783.477 237.504 780.468 241.193 778.791C245.937 776.639 250.156 779.021 250.836 784.207C251.171 786.795 251.011 789.378 250.821 792.367ZM247.032 791.015C246.952 788.573 247.407 786.1 246.717 783.687C246.197 781.875 244.917 781.229 243.148 781.85C240.898 782.636 239.293 784.197 238.138 786.24C236.969 788.317 236.269 790.57 235.799 792.898C235.049 796.587 234.639 800.336 233.804 804.021C233.164 806.854 231.25 809.036 230.25 811.684C229.765 812.966 228.145 813.156 226.821 813.266C224.276 813.482 221.742 813.251 219.222 812.866C217.118 812.546 215.048 811.935 212.893 812.06C210.274 812.205 209.249 813.477 209.614 816.085C209.739 816.961 210.049 817.752 210.574 818.457C212.109 820.515 214.153 821.851 216.653 822.287C219.197 822.727 221.797 822.812 224.346 823.228C228.385 823.889 229.915 826.417 228.715 830.326C228.235 831.888 227.626 833.41 227.026 834.927C226.096 837.294 225.121 839.642 224.756 842.19C224.321 845.199 225.636 847.076 228.615 847.747C229.96 848.052 231.32 848.072 232.68 848.042C237.334 847.942 239.483 846.205 240.498 841.69C241.168 838.721 241.638 835.708 242.403 832.769C244.137 826.101 248.082 823.303 254.95 823.653C257.68 823.794 260.304 824.61 263.024 824.84C266.388 825.12 268.058 823.583 268.013 820.189C267.943 814.683 262.839 809.167 257.06 808.331C256.075 808.19 255.09 808.01 254.115 807.81C250.141 806.984 247.937 804.676 247.287 800.672C246.762 797.463 246.737 794.244 247.032 791.015Z" fill="#FAFAFA"/>
<path d="M278.821 751.367C278.831 753.645 278.611 756.328 279.081 758.991C279.536 761.569 280.391 762.505 282.955 763.071C283.93 763.286 284.915 763.446 285.9 763.601C292.443 764.622 298.447 770.374 299.717 776.857C301.217 784.511 296.628 789.131 288.989 787.679C286.59 787.224 284.2 786.658 281.735 786.618C277.741 786.558 275.677 788.005 274.477 791.839C273.502 794.968 273.212 798.242 272.527 801.435C271.203 807.613 267.238 810.921 260.939 810.997C259.535 811.012 258.14 810.987 256.735 810.736C250.991 809.7 248.202 805.65 249.282 799.849C249.817 796.97 251.011 794.307 251.911 791.544C252.306 790.337 252.656 789.116 252.981 787.885C253.256 786.853 252.901 786.238 251.756 786.118C249.502 785.882 247.242 785.672 245.013 785.307C240.778 784.616 237.329 782.643 235.129 778.814C234.535 777.778 234.205 776.651 234.065 775.46C233.55 771.045 236.144 767.936 240.578 767.666C242.503 767.551 244.393 767.846 246.242 768.312C248.057 768.772 249.887 768.998 251.746 769.018C253.786 769.033 255.286 768.046 256.4 766.399C258.055 763.952 258.53 761.123 258.97 758.29C259.61 754.165 260.09 750.01 261.749 746.111C263.294 742.477 265.504 739.468 269.193 737.791C273.937 735.639 278.156 738.021 278.836 743.207C279.171 745.795 279.011 748.378 278.821 751.367ZM275.032 750.015C274.952 747.573 275.407 745.1 274.717 742.687C274.197 740.875 272.917 740.229 271.148 740.85C268.898 741.636 267.293 743.197 266.138 745.24C264.969 747.317 264.269 749.57 263.799 751.898C263.049 755.587 262.639 759.336 261.804 763.021C261.164 765.854 259.25 768.036 258.25 770.684C257.765 771.966 256.145 772.156 254.821 772.266C252.276 772.482 249.742 772.251 247.222 771.866C245.118 771.546 243.048 770.935 240.893 771.06C238.274 771.205 237.249 772.477 237.614 775.085C237.739 775.961 238.049 776.752 238.574 777.457C240.109 779.515 242.153 780.851 244.653 781.287C247.197 781.727 249.797 781.812 252.346 782.228C256.385 782.889 257.915 785.417 256.715 789.326C256.235 790.888 255.626 792.41 255.026 793.927C254.096 796.294 253.121 798.642 252.756 801.19C252.321 804.199 253.636 806.076 256.615 806.747C257.96 807.052 259.32 807.072 260.68 807.042C265.334 806.942 267.483 805.205 268.498 800.69C269.168 797.721 269.638 794.708 270.403 791.769C272.137 785.101 276.082 782.303 282.95 782.653C285.68 782.794 288.304 783.61 291.024 783.84C294.388 784.12 296.058 782.583 296.013 779.189C295.943 773.683 290.839 768.167 285.06 767.331C284.075 767.19 283.09 767.01 282.115 766.81C278.141 765.984 275.937 763.676 275.287 759.672C274.762 756.463 274.737 753.244 275.032 750.015Z" fill="#F3CC4B"/>
<path d="M1317.21 400.851C1317.24 407.631 1314.82 411.721 1310.13 414.501C1306.12 416.881 1302.43 419.561 1299.93 423.691C1297.6 427.541 1297.11 431.071 1299.71 435.081C1302.39 439.201 1304.15 443.811 1304.96 448.711C1305.69 453.151 1305.19 457.421 1302.88 461.341C1299.54 467.001 1294.48 468.091 1289.04 464.411C1286.35 462.591 1284.43 460.071 1282.57 457.481C1280.19 454.161 1278.05 450.661 1275 447.871C1270.91 444.131 1269.08 444.071 1265.1 447.951C1258.99 453.911 1251.96 457.561 1243.21 457.311C1241.08 457.251 1239.06 456.821 1237.15 455.951C1231.34 453.291 1229.4 447.551 1232.4 441.891C1234.01 438.841 1236.54 436.641 1239.24 434.601C1240.37 433.751 1241.73 433.051 1241.37 431.191C1241.24 430.501 1241.93 430.121 1242.45 429.751C1248.05 425.741 1249.29 420.031 1248.73 413.621C1248.3 408.721 1246.79 404.031 1245.96 399.201C1245.07 394.021 1246.01 389.261 1249.11 385.001C1253.8 378.561 1261.81 378.301 1266.97 384.451C1269.32 387.251 1270.83 390.581 1272.51 393.801C1273.94 396.531 1275.37 399.261 1277.63 401.461C1279.54 403.321 1281.5 403.561 1283.76 402.161C1286.79 400.291 1289.34 397.801 1292.15 395.651C1296.06 392.661 1300.31 390.581 1305.36 390.531C1312.6 390.461 1317.13 394.911 1317.21 400.851ZM1269.96 439.091C1273.54 438.911 1276.18 440.811 1278.68 442.981C1282.44 446.241 1284.98 450.461 1287.8 454.471C1289.27 456.561 1290.84 458.531 1293.14 459.821C1294.57 460.621 1295.73 460.401 1296.74 459.161C1298.69 456.771 1299.34 454.031 1298.93 451.001C1298.26 446.061 1296.41 441.541 1293.91 437.291C1291.06 432.441 1291.28 427.661 1293.78 422.771C1296.32 417.791 1299.82 413.741 1304.64 410.861C1306.35 409.841 1308.14 408.911 1309.55 407.461C1311.92 405.021 1312.5 400.881 1310.9 398.121C1309.46 395.651 1306.76 394.981 1302.9 396.061C1300.32 396.781 1298.03 398.041 1295.94 399.671C1293.36 401.681 1290.92 403.871 1288.28 405.791C1282.28 410.171 1277.1 409.441 1272.33 403.711C1270.04 400.961 1268.58 397.721 1267.02 394.551C1265.74 391.951 1264.62 389.241 1262.68 387.031C1259.57 383.471 1255.66 383.581 1252.72 387.251C1249.89 390.791 1249.44 394.811 1250.34 399.101C1251.05 402.471 1251.89 405.811 1252.5 409.201C1253.54 414.931 1252.65 420.351 1250.94 426.001C1248.99 432.411 1245.47 437.101 1240.27 440.901C1239.55 441.431 1238.95 442.161 1238.4 442.871C1235.43 446.711 1236.88 450.441 1241.7 451.141C1245.75 451.721 1249.65 451.031 1253.34 449.201C1256.64 447.561 1259.38 445.211 1262.03 442.701C1264.26 440.591 1266.71 438.921 1269.96 439.091Z" fill="#E57128"/>
<defs>
<clipPath id="clip0_547:188">
<rect width="97.9616" height="83.967" fill="white" transform="translate(1249.68 164) rotate(65.9592)"/>
</clipPath>
<clipPath id="clip1_547:188">
<rect width="94.3527" height="80.9636" fill="white" transform="translate(997.709 291.564) rotate(46.2082)"/>
</clipPath>
</defs>
</svg>
