<svg width="186" height="50" viewBox="0 0 186 50" fill="none" xmlns="http://www.w3.org/2000/svg">
<path d="M180.054 10.9851C181.901 10.9851 183.667 10.9851 185.507 10.9851C184.35 16.5348 183.21 22.0158 182.062 27.4968C181.65 29.4668 181.273 31.4439 180.799 33.3973C180.095 36.3109 178.001 38.0225 175.078 38.1695C172.034 38.3236 169.574 36.8253 168.623 33.9971C167.668 31.1594 166.904 28.2554 166.065 25.3798C165.558 23.6373 165.112 21.8759 164.531 20.1596C164.372 19.6878 163.827 19.3441 163.46 18.941C163.097 19.3512 162.547 19.7044 162.402 20.1785C161.07 24.5951 159.844 29.0448 158.517 33.4637C157.4 37.1785 154.19 38.9494 150.478 37.9514C148.285 37.3634 146.713 35.96 146.227 33.7506C144.568 26.2024 143.029 18.6257 141.417 10.9306C143.153 10.9306 144.803 10.895 146.445 10.9709C146.687 10.9827 147.04 11.4948 147.112 11.8267C148.47 18.1919 149.795 24.5642 151.127 30.9366C151.168 31.1286 151.156 31.3633 151.263 31.5079C151.583 31.937 151.952 32.3329 152.301 32.743C152.687 32.359 153.285 32.0389 153.427 31.5767C154.375 28.5256 155.224 25.4461 156.106 22.3761C156.499 21.0106 156.869 19.6404 157.301 18.2867C158.249 15.3045 160.608 13.4885 163.481 13.4885C166.525 13.4862 168.649 15.0745 169.614 18.2512C170.911 22.5136 172.117 26.8045 173.362 31.0836C173.44 31.3491 173.452 31.6786 173.62 31.8588C173.94 32.1978 174.336 32.6411 174.732 32.6743C175.002 32.698 175.498 32.1456 175.595 31.7711C176.019 30.1306 176.347 28.464 176.693 26.8045C177.748 21.7455 178.795 16.6842 179.85 11.6252C179.893 11.4332 179.969 11.2506 180.054 10.9851Z" fill="#E66C0D"/>
<path d="M57.209 32.1693C59.5465 33.7269 61.9124 34.0327 64.4134 33.7221C67.8533 33.2978 70.1244 31.2543 70.7715 27.8405C71.2575 25.2826 71.1817 22.7341 70.3022 20.252C69.6573 18.4361 68.4175 17.1512 66.6182 16.4827C64.0816 15.5391 61.4833 15.4917 58.9799 16.5064C55.9502 17.7344 54.689 20.271 54.6487 23.3789C54.5681 29.5379 54.6155 35.7016 54.6131 41.8606C54.6108 44.4588 54.6131 47.0594 54.6131 49.7383C52.802 49.7383 51.0832 49.7383 49.2531 49.7383C49.2317 49.4349 49.1891 49.0958 49.1891 48.7568C49.1867 40.4643 49.1251 32.1693 49.2341 23.8768C49.2602 21.9826 49.5826 19.977 50.2772 18.2251C52.2117 13.3415 56.0995 10.8974 61.2368 10.4968C62.9863 10.3593 64.8141 10.4588 66.5281 10.8144C71.8834 11.9263 75.392 15.8995 76.1956 21.4634C76.6057 24.3059 76.5963 27.1364 75.8969 29.9314C74.5646 35.2654 69.9821 39.0229 64.4632 39.369C62.2727 39.5065 60.1154 39.3287 58.0672 38.5037C57.7021 38.3568 57.2659 37.84 57.2469 37.4749C57.1592 35.7893 57.209 34.0896 57.209 32.1693Z" fill="#E66C0D"/>
<path d="M43.6986 38.1623C42.0628 38.1623 40.3702 38.1623 38.5116 38.1623C38.5116 37.7143 38.5116 37.2971 38.5116 36.8798C38.5116 32.6529 38.5448 28.4284 38.4902 24.2015C38.476 23.0707 38.3267 21.9067 38.0137 20.8233C37.3405 18.5025 35.7782 16.9473 33.4502 16.2551C31.3593 15.634 29.2305 15.6316 27.1419 16.2432C24.6171 16.9852 23.0596 18.7182 22.4361 21.2524C21.898 23.4334 21.8861 25.6429 22.4314 27.8215C23.126 30.5928 24.8803 32.3447 27.6872 33.0109C30.3731 33.6486 32.7959 33.293 35.9086 31.7236C35.9086 33.6249 35.9323 35.4574 35.8778 37.2899C35.8707 37.5175 35.4819 37.8352 35.2045 37.9395C27.7725 40.7558 17.3819 37.5057 16.7489 26.3138C16.6328 24.2513 16.756 22.1059 17.197 20.0908C18.4226 14.4913 22.8984 10.8334 28.6402 10.4636C31.4707 10.281 34.2491 10.4873 36.845 11.7698C40.7495 13.6971 43.3098 16.8786 43.6038 21.1386C43.9902 26.75 43.6986 32.4064 43.6986 38.1623Z" fill="#E66C0D"/>
<path d="M112.147 24.5951C112.185 19.9699 113.37 15.8307 117.277 12.9196C124.036 7.88427 134.933 10.3213 138.12 17.6656C140.094 22.2149 140.125 26.9467 138.091 31.4723C135.704 36.7826 131.171 38.7882 125.588 38.7218C117.239 38.6222 112.173 33.2669 112.147 24.5951ZM125.847 15.8568C121.606 15.8473 118.763 17.6727 118.042 21.2785C117.666 23.1679 117.63 25.2185 117.91 27.1269C118.429 30.6687 120.461 32.5652 123.957 33.1247C125.109 33.3096 126.33 33.3072 127.492 33.1602C130.953 32.724 133.191 30.6142 133.755 27.198C133.983 25.8159 134.033 24.358 133.883 22.9664C133.366 18.1658 130.707 15.8687 125.847 15.8568Z" fill="#E66C0D"/>
<path d="M86.2496 13.4956C90.1754 13.4956 94.1131 13.4956 98.1455 13.4956C98.1455 15.3258 98.1455 17.0706 98.1455 18.9197C94.1937 18.9197 90.2607 18.9197 86.1998 18.9197C86.1998 25.3513 86.1998 31.6833 86.1998 38.1055C84.327 38.1055 82.5822 38.1055 80.7164 38.1055C80.7164 37.738 80.7164 37.3943 80.7164 37.0505C80.7164 29.1942 80.707 21.3354 80.7212 13.479C80.7283 10.0131 81.6552 6.85542 84.0046 4.2145C86.3349 1.59729 89.3267 0.307653 92.7594 0.0658451C94.6346 -0.0669118 96.5288 0.0421385 98.4822 0.0421385C98.4822 1.83436 98.4822 3.55072 98.4822 5.42117C97.1902 5.42117 95.9337 5.36664 94.6868 5.43776C93.5133 5.50414 92.3019 5.54681 91.1853 5.86685C87.909 6.81037 85.9106 9.94913 86.2496 13.4956Z" fill="#E66C0D"/>
<path d="M108.373 49.9896C106.758 49.9896 105.189 50.0346 103.629 49.9374C103.408 49.9232 103.067 49.2025 103.065 48.8066C103.024 43.7547 103.034 38.7029 103.034 33.6486C103.034 22.8337 103.039 12.0187 103.041 1.20376C103.041 0.85764 103.041 0.509153 103.041 0.084805C104.859 0.084805 106.576 0.084805 108.373 0.084805C108.373 16.6652 108.373 33.2527 108.373 49.9896Z" fill="#E66C0D"/>
<path d="M14.0274 38.1126C6.76372 38.7527 0.384269 33.4613 0.149574 26.2545C-0.104087 18.4076 0.0476353 10.5465 0.0215581 2.69017C0.0191874 1.83436 0.0215581 0.976185 0.0215581 0.0634811C1.84223 0.0634811 3.52539 0.0634811 5.35554 0.0634811C5.35554 3.63607 5.35554 7.20154 5.35554 10.8832C8.24064 10.8832 10.9835 10.8832 13.8069 10.8832C13.8069 12.7441 13.8069 14.4889 13.8069 16.3618C11.0096 16.3618 8.26671 16.3618 5.63054 16.3618C5.63054 19.9509 5.3508 23.4382 5.70877 26.8591C6.07148 30.3107 8.89968 32.4799 12.4414 32.7312C12.9464 32.7667 13.4513 32.7881 14.025 32.8189C14.0274 34.5969 14.0274 36.3132 14.0274 38.1126Z" fill="#E66C0D"/>
<path d="M17.6592 6.97863C24.1287 0.577851 37.5822 0.995087 43.2671 7.07109C42.3828 7.7894 41.5033 8.50297 40.6546 9.19046C33.692 4.60797 27.1916 4.69569 19.8971 9.44886C19.1717 8.64995 18.4344 7.83681 17.6592 6.97863Z" fill="#E66C0D"/>
<path d="M117.637 44.7694C117.668 44.6627 117.67 44.62 117.692 44.5892C118.237 43.8164 118.635 42.7116 119.38 42.375C120.041 42.0763 121.101 42.5836 121.964 42.8183C127.082 44.217 135.827 41.9578 139.096 36.7637C139.179 36.6309 139.269 36.5005 139.412 36.2895C140.422 36.9509 141.337 37.5483 142.245 38.141C138.52 45.3668 125.282 49.3756 117.637 44.7694Z" fill="#E66C0D"/>
</svg>
