<svg xmlns="http://www.w3.org/2000/svg" xmlns:xlink="http://www.w3.org/1999/xlink" width="30" height="30" viewBox="0 0 30 30">
  <defs>
    <clipPath id="clip-path">
      <rect id="Rectangle_3" data-name="Rectangle 3" width="30" height="30" fill="#fff"/>
    </clipPath>
  </defs>
  <g id="Group_10" data-name="Group 10" clip-path="url(#clip-path)">
    <path id="Path_25" data-name="Path 25" d="M29.971,8.82a10.964,10.964,0,0,0-.7-3.639A7.685,7.685,0,0,0,24.884.791a10.99,10.99,0,0,0-3.639-.7C19.639.018,19.129,0,15.056,0S10.473.018,8.873.088a10.965,10.965,0,0,0-3.639.7A7.32,7.32,0,0,0,2.573,2.52,7.386,7.386,0,0,0,.844,5.175a10.992,10.992,0,0,0-.7,3.639C.07,10.42.053,10.93.053,15s.018,4.583.088,6.183a10.962,10.962,0,0,0,.7,3.639,7.684,7.684,0,0,0,4.389,4.389,10.991,10.991,0,0,0,3.639.7c1.6.07,2.11.088,6.183.088s4.583-.017,6.183-.088a10.958,10.958,0,0,0,3.639-.7,7.673,7.673,0,0,0,4.39-4.389,11,11,0,0,0,.7-3.639c.07-1.6.088-2.11.088-6.183S30.041,10.42,29.971,8.82Zm-2.7,12.249a8.221,8.221,0,0,1-.516,2.784A4.976,4.976,0,0,1,23.905,26.7a8.253,8.253,0,0,1-2.784.516c-1.582.07-2.057.088-6.06.088s-4.483-.017-6.06-.088A8.22,8.22,0,0,1,6.218,26.7,4.617,4.617,0,0,1,4.5,25.581a4.665,4.665,0,0,1-1.119-1.723,8.254,8.254,0,0,1-.516-2.784c-.071-1.582-.088-2.057-.088-6.06s.017-4.483.088-6.06a8.219,8.219,0,0,1,.516-2.784A4.56,4.56,0,0,1,4.5,4.448,4.657,4.657,0,0,1,6.224,3.329a8.258,8.258,0,0,1,2.784-.516c1.582-.07,2.057-.088,6.06-.088s4.483.018,6.06.088a8.223,8.223,0,0,1,2.784.516,4.613,4.613,0,0,1,1.723,1.119,4.663,4.663,0,0,1,1.119,1.723,8.255,8.255,0,0,1,.516,2.784c.07,1.582.088,2.057.088,6.06S27.339,19.486,27.269,21.069Z" fill="#49505b"/>
    <path id="Path_26" data-name="Path 26" d="M15.056,7.3A7.707,7.707,0,1,0,22.762,15,7.708,7.708,0,0,0,15.056,7.3Zm0,12.706a5,5,0,1,1,5-5A5,5,0,0,1,15.056,20Z" fill="#49505b"/>
    <path id="Path_27" data-name="Path 27" d="M24.866,6.992a1.8,1.8,0,1,1-1.8-1.8A1.8,1.8,0,0,1,24.866,6.992Z" fill="#49505b"/>
  </g>
</svg>
