<svg xmlns="http://www.w3.org/2000/svg" xmlns:xlink="http://www.w3.org/1999/xlink" width="30" height="30" viewBox="0 0 30 30">
  <defs>
    <clipPath id="clip-path">
      <rect id="Rectangle_4" data-name="Rectangle 4" width="30" height="30" fill="#fff"/>
    </clipPath>
  </defs>
  <g id="Group_11" data-name="Group 11" clip-path="url(#clip-path)">
    <path id="Path_28" data-name="Path 28" d="M29.993,30H30V19c0-5.382-1.159-9.529-7.451-9.529A6.532,6.532,0,0,0,16.665,12.7h-.088V9.97H10.611V30h6.212V20.081c0-2.611.5-5.136,3.729-5.136,3.186,0,3.234,2.98,3.234,5.3V30Z" fill="#49505b"/>
    <path id="Path_29" data-name="Path 29" d="M.495,9.971h6.22V30H.495Z" fill="#49505b"/>
    <path id="Path_30" data-name="Path 30" d="M3.6,0A3.619,3.619,0,1,0,7.2,3.6,3.6,3.6,0,0,0,3.6,0Z" fill="#49505b"/>
  </g>
</svg>
